<svg width="273" height="254" viewBox="0 0 273 254" fill="none" xmlns="http://www.w3.org/2000/svg">
<path d="M25.7454 225.415C25.7004 224.702 25.6404 223.982 25.6104 223.263C25.5879 222.82 25.6029 222.37 25.7454 221.936C25.9328 221.373 26.2777 221.208 26.8251 221.441C27.2225 221.606 27.5599 221.868 27.8823 222.153C28.6096 222.783 29.2169 223.503 29.7418 224.297C31.4588 226.884 32.8384 229.629 33.7682 232.598C33.9556 233.198 33.8807 233.745 33.4833 234.24C33.1534 234.652 32.7859 235.02 32.3586 235.327C31.7212 235.784 31.0089 235.994 30.2291 235.957C29.8992 235.942 29.5693 235.934 29.2394 235.904C28.2197 235.807 27.185 235.762 26.1727 235.574C24.6657 235.297 23.1886 234.877 21.7265 234.427C19.5745 233.767 17.3926 233.213 15.2182 232.605C12.4815 231.848 9.7147 231.271 6.91046 230.821C5.80076 230.641 4.69107 230.446 3.61136 230.123C3.33394 230.041 3.04903 229.958 2.8091 229.786C2.39671 229.479 2.40421 229.014 2.83159 228.729C3.09402 228.556 3.39393 228.459 3.69385 228.384C4.86353 228.069 6.04821 227.881 7.25539 227.851C11.2593 227.761 15.1957 228.181 19.0572 229.299C19.1771 229.336 19.2971 229.426 19.4396 229.351C19.4396 229.239 19.3346 229.194 19.2746 229.134C17.73 227.657 16.118 226.269 14.3934 224.995C10.8844 222.4 7.33786 219.844 3.92629 217.122C3.04902 216.417 2.16426 215.72 1.29449 215.007C1.09205 214.842 0.919598 214.633 1.03957 214.355C1.14454 214.108 1.39198 214.078 1.63191 214.055C2.26924 214.01 2.91406 214.018 3.55139 214.093C7.12042 214.52 10.457 215.675 13.6361 217.332C18.0524 219.634 21.689 222.91 25.198 226.352C25.378 226.524 25.5054 226.757 25.7978 226.899C25.8278 226.359 25.7754 225.88 25.7454 225.392V225.415Z" fill="#0D0D0D" stroke="#0D0D0D" stroke-width="0.374898" stroke-miterlimit="10"/>
<path d="M33.146 231.901C33.4159 232.733 33.191 233.423 32.5012 233.947C32.2387 234.15 31.9838 234.367 31.7064 234.532C30.7242 235.102 29.6969 235.515 28.5573 235.042C27.755 234.712 26.9302 234.712 26.0979 234.832C25.8205 234.877 25.5656 234.877 25.3031 234.787C23.2562 234.112 21.1793 233.55 19.1098 232.95C15.6607 231.953 12.1967 231.001 8.66515 230.326C7.3755 230.079 6.07833 229.839 4.80368 229.494C4.61623 229.441 4.39879 229.434 4.21884 229.209C5.35103 228.916 6.43076 228.729 7.54045 228.699C11.6343 228.579 15.6757 228.909 19.6122 230.154C19.8671 230.236 20.1295 230.318 20.4295 230.191C20.422 229.704 20.197 229.306 19.9121 228.931C19.6197 228.549 19.2973 228.182 18.9449 227.852C17.7527 226.704 16.493 225.64 15.1359 224.703C10.7046 221.658 6.46073 218.374 2.29936 214.97C2.21688 214.903 2.09692 214.858 2.09692 214.715C2.20939 214.61 2.35186 214.64 2.47933 214.633C2.86922 214.61 3.25911 214.633 3.6415 214.685C6.66318 215.105 9.53491 216.02 12.2942 217.325C17.0179 219.566 21.0293 222.768 24.6883 226.465C24.9882 226.764 25.2656 227.087 25.5581 227.394C25.693 227.544 25.858 227.672 26.0679 227.574C26.2554 227.492 26.2554 227.297 26.2404 227.117C26.2104 226.48 26.1804 225.842 26.1354 225.205C26.0829 224.388 26.0079 223.578 26.0604 222.761C26.0754 222.423 26.0154 221.973 26.3678 221.823C26.6753 221.688 26.9752 222.011 27.2301 222.213C28.0774 222.873 28.7672 223.683 29.3745 224.568C30.6717 226.464 31.6914 228.511 32.6436 230.596C32.8311 231.023 32.996 231.458 33.146 231.901Z" fill="#ABABAB"/>
<path d="M195.035 98.8643L244.236 76.5728C245.451 77.6225 246.471 78.9122 247.228 80.3743L270.299 125.257C271.664 127.926 272.024 130.933 271.424 133.76L221.165 155.856C221.982 152.835 221.675 149.565 220.205 146.694L197.134 101.811C196.579 100.724 195.867 99.7341 195.042 98.8643H195.035Z" fill="#C1C1C1"/>
<path d="M266.888 142.037L244.589 174.279C243.539 175.801 242.204 177.038 240.675 177.953L240.645 177.968L189.629 199.892C191.548 198.955 193.235 197.53 194.502 195.708L199.024 189.162H199.031L219.358 159.763C220.19 158.548 220.805 157.213 221.172 155.841L271.431 133.745C271.086 135.372 270.427 136.931 269.459 138.326L266.895 142.03L266.888 142.037Z" fill="#9B9B9B"/>
<path d="M244.236 76.5726L195.034 98.8641C193.077 96.7947 190.453 95.4151 187.559 95.0102L163.116 91.591L138.627 88.1645C136.73 87.9021 134.841 88.067 133.071 88.6069L165.852 74.5482H165.86L177.767 69.4495L182.595 67.3801C184.515 66.6753 186.614 66.4353 188.721 66.7203L237.653 73.5809C240.12 73.9258 242.399 74.983 244.229 76.5726H244.236Z" fill="#E6E6E6"/>
<path d="M39.7739 22.9997L89.1105 1.85552L89.2005 1.82549C91.15 1.09069 93.2869 0.820726 95.4313 1.12814L101.317 1.95299H101.325L107.196 2.77025L117.078 4.15735L122.214 4.88463H122.222L144.356 7.9813C146.83 8.3337 149.109 9.39091 150.939 10.9805L130.499 20.2329L101.737 33.2719C99.7802 31.195 97.1558 29.8154 94.2541 29.4105L79.1832 27.3036L62.9426 25.0242L46.882 22.7748L45.3374 22.5574C43.4329 22.295 41.5434 22.4599 39.7739 22.9997Z" fill="#E6E6E6"/>
<path d="M130.507 20.2329L150.946 10.9805C152.161 12.0227 153.173 13.3124 153.931 14.7745L177.002 59.6573C178.396 62.3716 178.741 65.4457 178.089 68.3249C177.999 68.7073 177.902 69.0822 177.774 69.4571L165.867 74.5558H165.86L133.079 88.6144L133.004 88.637C132.246 88.8844 131.519 89.1918 130.814 89.5742C129.255 90.4065 127.86 91.5762 126.75 93.0308C128.767 89.3568 128.842 84.8729 126.9 81.094L110.9 49.9699L103.829 36.2187C103.267 35.1314 102.562 34.1417 101.737 33.2794L130.499 20.2404L130.507 20.2329Z" fill="#C1C1C1"/>
<path d="M123.736 187.437C125.326 190.534 128.093 192.806 131.362 193.796L124.396 196.862C125.213 193.848 124.906 190.564 123.436 187.692L100.365 142.81C98.4682 139.128 94.9066 136.586 90.7977 136.016L41.8735 129.163C39.9315 128.893 37.9896 129.073 36.1901 129.651L39.0018 128.458C39.3392 128.533 39.6691 128.593 40.014 128.638L88.9383 135.492C93.4895 136.129 98.0183 134.269 100.8 130.655C100.403 131.398 100.08 132.17 99.8328 132.957C98.8655 136.099 99.1355 139.548 100.68 142.562L123.751 187.445L123.736 187.437Z" fill="#9B9B9B"/>
<path d="M159.817 197.95L147.82 215.293C146.77 216.815 145.436 218.052 143.906 218.967L143.876 218.982L92.86 240.906C94.7795 239.969 96.4665 238.544 97.7337 236.722L102.255 230.176L122.589 200.769C123.422 199.562 124.029 198.227 124.404 196.855L131.37 193.789C131.999 193.991 132.652 194.133 133.312 194.223L155.588 197.343L159.824 197.942L159.817 197.95Z" fill="#9B9B9B"/>
<path d="M56.0747 155.984C55.9997 155.699 56.2022 155.406 56.4871 155.324C56.787 155.272 57.0794 155.452 57.1319 155.751C57.2069 156.036 57.0194 156.321 56.7345 156.396C56.4421 156.449 56.1572 156.276 56.0747 155.984Z" fill="#E0E0E0"/>
<path d="M61.7956 149.91C61.7956 149.91 61.7881 149.873 61.7806 149.858V149.835C61.7731 149.61 61.7281 149.078 61.6232 148.471C61.5032 146.919 61.6157 144.774 63.2277 145.232C66.4369 146.154 63.0403 149.603 62.6204 150C62.313 149.963 62.0281 149.918 61.7956 149.91Z" fill="#E0E0E0"/>
<path d="M61.7805 149.85C61.7805 149.85 61.788 149.888 61.7955 149.903C61.2482 149.85 60.8958 149.888 60.8958 149.888C60.7908 149.888 60.6633 149.895 60.5584 149.895C60.5584 149.895 56.487 147.106 59.2087 145.622C60.6783 144.834 61.3307 146.911 61.6231 148.463C61.6681 149.078 61.7356 149.611 61.7805 149.828V149.85Z" fill="#E0E0E0"/>
<path d="M58.0465 162.222H58.0315C53.8552 160.28 53.0754 156.096 54.7624 153.164C55.7072 151.5 57.4092 150.233 59.7261 149.955V149.97C59.8985 150.442 62.7328 158.465 58.0465 162.222ZM56.487 155.324C56.202 155.406 55.9996 155.699 56.0746 155.983C56.157 156.276 56.442 156.456 56.7344 156.396C57.0193 156.321 57.2068 156.036 57.1318 155.751C57.0793 155.451 56.7869 155.264 56.487 155.324Z" fill="#E0E0E0"/>
<path d="M117.873 187.505C118.765 189.23 119.178 191.119 119.148 192.986C119.11 195.22 118.42 197.44 117.101 199.359L94.5543 231.96C92.0724 235.559 87.7761 237.441 83.4423 236.842L73.455 235.439L73.5675 234.645C73.5675 234.645 76.4242 211.611 74.4297 204.833C73.3125 201.054 70.6208 197.852 67.0892 195.805C62.2455 192.993 55.8348 192.379 49.8664 195.453C39.9766 200.574 41.4837 230.281 41.4837 230.281L41.3862 230.948L39.0693 230.618C37.1273 230.348 35.3203 229.599 33.7907 228.459C32.3811 227.417 31.2115 226.052 30.3867 224.448L9.45985 183.749C7.51038 179.962 7.8103 175.403 10.2321 171.887L11.2444 170.425L32.7785 139.293C35.2603 135.694 39.5567 133.812 43.8905 134.412L63.2128 137.119L88.256 140.628C91.9824 141.145 95.2216 143.447 96.9386 146.799L117.865 187.498L117.873 187.505ZM77.9613 158.585C78.6661 157.566 78.7561 156.238 78.1862 155.129L72.0978 143.29C71.5955 142.307 70.6583 141.64 69.5636 141.49L56.6446 139.683C55.3849 139.503 54.1402 140.05 53.4129 141.1L46.8447 150.585C46.1399 151.612 46.0574 152.939 46.6198 154.042L52.7081 165.888C53.2105 166.871 54.1552 167.538 55.2424 167.688L68.1614 169.495C69.4211 169.667 70.6657 169.12 71.393 168.078L77.9613 158.585Z" fill="#C7C7C7"/>
<path d="M14.9934 181.687C14.9934 181.687 11.9267 160.273 39.9916 210.501C47.7445 224.38 80.7656 224.17 85.1519 220.054C99.5105 206.55 99.7729 214.273 99.7729 214.273C99.7729 214.273 93.6396 228.242 87.3938 229.839C79.4984 231.848 44.6479 227.492 36.9324 222.176C33.1685 219.582 27.2076 207.772 15.0009 181.694L14.9934 181.687Z" fill="#E6E6E6"/>
<path d="M61.5483 146.334C75.3296 147.579 84.6421 150.915 92.41 164.786C107.533 191.817 108.756 185.241 108.756 185.241C97.6285 158.683 91.3453 151.29 87.6862 148.546C80.1883 142.915 49.4991 139.766 41.5287 141.453C41.5287 141.453 40.2616 144.414 61.5483 146.334Z" fill="#E6E6E6"/>
<path d="M126.9 81.0788C128.842 84.8578 128.76 89.3416 126.75 93.0156C126.623 93.1806 126.495 93.353 126.375 93.5254L123.819 97.222L110.9 115.899L101.52 129.471C101.257 129.853 101.017 130.243 100.792 130.648C98.0181 134.262 93.4893 136.121 88.9306 135.484L40.0063 128.631C39.6614 128.586 39.3315 128.518 38.9941 128.451C35.3201 127.634 32.1635 125.219 30.4314 121.838L18.6596 98.9315L7.36769 76.9549C5.20827 72.7711 5.54567 67.74 8.22244 63.871L19.2145 47.9753L32.4259 28.878L33.0782 27.9332C34.2404 26.2462 35.77 24.8966 37.5095 23.9594L39.6989 23.0221L39.7739 22.9996C41.5434 22.4597 43.4329 22.2948 45.3374 22.5572L46.882 22.7746L62.9426 25.024L79.1832 27.3034L94.2541 29.4104C97.1483 29.8153 99.7801 31.1948 101.737 33.2718C102.562 34.134 103.267 35.1163 103.829 36.211L110.9 49.9622L126.9 81.0863V81.0788ZM122.611 86.3724C122.641 84.5054 122.229 82.6159 121.337 80.8914L100.41 40.1925C98.6929 36.8409 95.4538 34.5389 91.7273 34.0216L66.6841 30.5126L47.3618 27.8058C43.0355 27.1985 38.7317 29.088 36.2498 32.687L14.7157 63.8185L13.7035 65.2806C11.2816 68.7897 10.9817 73.3484 12.9312 77.1424L33.858 117.841C34.6828 119.446 35.8525 120.811 37.2621 121.853C38.7917 122.992 40.5987 123.742 42.5406 124.012L46.3571 124.545L55.992 125.894L69.6458 127.806H69.6533L86.8986 130.228C91.2249 130.835 95.5288 128.946 98.0106 125.347L120.557 92.7457C121.877 90.8262 122.559 88.6068 122.604 86.3724H122.611Z" fill="#E2E2E2"/>
<path d="M92.8597 240.906C90.6178 242.015 88.0535 242.45 85.4742 242.09L36.55 235.237C32.4411 234.667 28.8721 232.125 26.9751 228.444L3.90386 183.561C1.75194 179.377 2.08185 174.346 4.76612 170.477L29.6144 134.532C30.7841 132.845 32.3136 131.495 34.0532 130.558L34.0907 130.543L36.1076 129.673L36.1976 129.636C37.9971 129.066 39.9391 128.878 41.8811 129.148L90.8053 136.001C94.9142 136.571 98.4757 139.113 100.373 142.795L123.444 187.677C124.914 190.549 125.228 193.833 124.404 196.847C124.029 198.227 123.421 199.554 122.589 200.761L102.255 230.169L97.7334 236.714C96.4662 238.536 94.7792 239.961 92.8597 240.898V240.906ZM119.148 192.986C119.178 191.119 118.765 189.23 117.873 187.505L96.9461 146.806C95.2291 143.454 91.99 141.153 88.2635 140.635L63.2203 137.126L43.898 134.419C39.5717 133.812 35.2678 135.702 32.786 139.301L11.2519 170.432L10.2396 171.894C7.81778 175.403 7.51787 179.962 9.46734 183.756L30.3942 224.455C31.2189 226.06 32.3886 227.424 33.7982 228.466C35.3278 229.606 37.1348 230.356 39.0768 230.626L41.3937 230.956L42.9008 231.166L46.2299 231.638L52.5432 232.523L66.197 234.435H66.2045L73.4625 235.455L83.4498 236.857C87.7761 237.464 92.0799 235.574 94.5618 231.975L117.108 199.374C118.428 197.455 119.11 195.235 119.155 193.001L119.148 192.986Z" fill="#E2E2E2"/>
<path d="M162.951 193.413H162.958L180.204 195.835C184.53 196.443 188.834 194.553 191.316 190.954L213.862 158.353C215.182 156.433 215.864 154.214 215.909 151.98C215.939 150.113 215.527 148.223 214.634 146.499L193.707 105.8C191.99 102.448 188.751 100.146 185.025 99.6287L159.982 96.1197L140.659 93.413C136.333 92.8057 132.029 94.6952 129.547 98.2942L108.013 129.426L107.001 130.888C104.579 134.397 104.279 138.956 106.229 142.75L127.155 183.449C127.98 185.053 129.15 186.418 130.56 187.46C132.089 188.6 133.896 189.349 135.838 189.619L139.655 190.152H139.662L149.289 191.501L162.943 193.413H162.951ZM220.198 146.686C221.667 149.558 221.982 152.819 221.157 155.849C220.79 157.228 220.175 158.555 219.343 159.77L199.016 189.162H199.009L194.487 195.715C193.22 197.537 191.533 198.962 189.614 199.899L188.489 200.386C186.532 201.129 184.38 201.391 182.228 201.084L159.817 197.95H159.809L155.573 197.35L133.296 194.231C132.636 194.133 131.984 193.991 131.354 193.796C128.085 192.806 125.318 190.534 123.729 187.437L100.658 142.555C99.1131 139.54 98.8432 136.091 99.8104 132.95C100.065 132.162 100.38 131.39 100.778 130.648C100.92 130.475 101.048 130.295 101.175 130.116L110.885 116.072L123.804 97.3944L126.031 94.1703C126.286 93.7954 126.526 93.413 126.728 93.0231C127.845 91.576 129.232 90.4063 130.792 89.5665L132.981 88.6293L133.056 88.6068C134.826 88.0669 136.715 87.902 138.612 88.1644L163.101 91.5909L187.544 95.0101C190.431 95.415 193.063 96.7946 195.02 98.864C195.844 99.7338 196.557 100.716 197.112 101.811L220.183 146.693L220.198 146.686Z" fill="#E2E2E2"/>
<path d="M214.634 146.491C215.526 148.216 215.939 150.105 215.909 151.972C215.871 154.207 215.181 156.426 213.862 158.345L191.315 190.947C188.834 194.546 184.537 196.428 180.203 195.828L162.958 193.406H162.951L149.297 191.494L139.669 190.144H139.662L135.845 189.612C133.903 189.342 132.096 188.592 130.567 187.452C129.157 186.41 127.988 185.046 127.163 183.441L106.236 142.742C104.287 138.956 104.586 134.397 107.008 130.88L108.021 129.418L129.555 98.2867C132.036 94.6877 136.333 92.8057 140.667 93.4055L159.989 96.1123L185.032 99.6213C188.759 100.139 191.998 102.441 193.715 105.792L214.642 146.491H214.634Z" fill="#E2E2E2"/>
<path d="M121.337 80.8915C122.229 82.616 122.642 84.5055 122.612 86.3725C122.574 88.6069 121.884 90.8263 120.565 92.7458L98.0184 125.347C95.5366 128.946 91.2402 130.828 86.9064 130.228L69.6611 127.806H69.6536L55.9998 125.894L46.3649 124.545L42.5485 124.012C40.6065 123.742 38.7995 122.993 37.2699 121.853C35.8603 120.811 34.6906 119.446 33.8658 117.841L12.939 77.1425C10.9895 73.356 11.2894 68.7973 13.7113 65.2807L14.7235 63.8186L36.2577 32.6871C38.7395 29.0881 43.0358 27.2061 47.3697 27.8059L66.6919 30.5127L91.7351 34.0217C95.4616 34.539 98.7007 36.841 100.418 40.1926L121.345 80.8915H121.337Z" fill="#E2E2E2"/>
<path d="M61.6231 148.471C61.7281 149.078 61.7731 149.61 61.7806 149.835C61.7356 149.618 61.6681 149.086 61.6231 148.471Z" fill="white"/>
<path d="M60.896 149.895C60.896 149.895 61.2484 149.858 61.7957 149.91C62.0357 149.918 62.3131 149.955 62.6205 150C63.1004 150.06 63.6477 150.18 64.2251 150.353V150.375C64.2251 150.375 67.9291 158.151 62.3431 163.167C61.3984 163.189 60.3636 163.054 59.2089 162.687C58.7965 162.559 58.4141 162.394 58.0392 162.222C62.7255 158.466 59.8912 150.443 59.7263 149.97C59.9812 149.918 60.2736 149.895 60.5511 149.895C60.656 149.895 60.7835 149.888 60.8885 149.888L60.896 149.895Z" fill="#E0E0E0"/>
<path d="M62.3506 163.159C67.9291 158.143 64.2176 150.368 64.2176 150.368V150.345H64.2326C66.5195 151.088 69.2262 152.925 69.6611 157.521L73.0277 159.313L68.7464 160.108C68.7464 160.108 66.467 163.107 62.3506 163.159Z" fill="#E0E0E0"/>
<path d="M62.3504 163.159C66.4742 163.114 68.7461 160.108 68.7461 160.108L73.0275 159.313L69.6609 157.521C69.226 152.917 66.5192 151.08 64.2324 150.345H64.2249C63.6475 150.18 63.0927 150.06 62.6203 149.993C63.0327 149.596 66.4293 146.147 63.2276 145.224C61.6156 144.767 61.5031 146.911 61.6231 148.463C61.3381 146.911 60.6858 144.834 59.2087 145.622C56.487 147.106 60.5584 149.895 60.5584 149.895C60.2809 149.895 59.9885 149.91 59.7336 149.97V149.955C57.4092 150.233 55.7072 151.5 54.7624 153.165C53.0754 156.096 53.8552 160.28 58.0315 162.23H58.0465C58.4214 162.387 58.8038 162.56 59.2162 162.687C60.3709 163.054 61.4056 163.189 62.3504 163.167V163.159ZM78.1861 155.129C78.7559 156.239 78.6734 157.566 77.9611 158.586L71.3929 168.078C70.6656 169.12 69.4209 169.668 68.1613 169.495L55.2423 167.688C54.1626 167.538 53.2104 166.871 52.708 165.889L46.6196 154.042C46.0573 152.947 46.1323 151.613 46.8446 150.585L53.4128 141.1C54.1401 140.051 55.3848 139.503 56.6444 139.683L69.5634 141.49C70.6506 141.64 71.5954 142.308 72.0977 143.29L78.1861 155.129Z" fill="white"/>
<path d="M74.4298 204.833C76.4243 211.611 73.5675 234.645 73.5675 234.645L73.4551 235.44L66.197 234.42H66.1895L52.5357 232.508L46.2225 231.623L46.3049 231.023C46.3049 231.023 44.9103 206.355 52.5807 198.797C58.0767 193.376 67.0893 195.805 67.0893 195.805C70.6133 197.845 73.3126 201.039 74.4298 204.825V204.833ZM56.6071 209.714C56.6071 208.207 55.3925 206.985 53.8854 206.985C52.3783 206.985 51.1561 208.207 51.1561 209.714C51.1561 211.221 52.3708 212.436 53.8854 212.436C55.4 212.436 56.6071 211.221 56.6071 209.714Z" fill="#A4A4A4"/>
<path d="M53.8852 206.978C55.3923 206.978 56.607 208.2 56.607 209.707C56.607 211.214 55.3923 212.429 53.8852 212.429C52.3781 212.429 51.1559 211.214 51.1559 209.707C51.1559 208.2 52.3706 206.978 53.8852 206.978Z" fill="#E0E0E0"/>
<path d="M42.8934 231.158L41.3863 230.948L41.4838 230.281C41.4838 230.281 39.9692 200.574 49.8665 195.453C55.8349 192.371 62.2456 192.994 67.0893 195.806C67.0893 195.806 58.0768 193.384 52.5808 198.805C44.9103 206.355 46.305 231.031 46.305 231.031L46.2225 231.631L42.8934 231.158Z" fill="white"/>
<path d="M111.927 138.603C111.927 138.603 108.86 117.189 136.925 167.418C144.678 181.297 177.699 181.087 182.085 176.97C196.444 163.467 196.707 171.189 196.707 171.189C196.707 171.189 190.573 185.158 184.327 186.755C176.432 188.765 141.581 184.408 133.866 179.092C130.102 176.498 124.141 164.689 111.935 138.611L111.927 138.603Z" fill="white"/>
<path d="M157.013 107.022C170.824 107.787 180.256 110.793 188.496 124.387C204.557 150.87 205.547 144.257 205.547 144.257C193.505 118.104 186.967 110.936 183.21 108.319C175.525 102.951 144.738 100.874 136.835 102.838C136.835 102.838 135.673 105.837 157.013 107.022Z" fill="white"/>
<path d="M231.272 114.618C231.272 114.618 232.134 118.157 231.272 123.555C228.04 143.717 225.371 124.17 219.898 114.708C216.156 108.237 231.272 114.618 231.272 114.618Z" fill="#9C9C9C"/>
<path d="M18.3976 74.0909C18.3976 74.0909 15.3309 52.6766 43.3958 102.905C51.1487 116.784 84.1698 116.574 88.5561 112.458C102.915 98.9541 103.177 106.677 103.177 106.677C103.177 106.677 97.0438 120.646 90.798 122.243C82.9026 124.252 48.0521 119.896 40.3366 114.58C36.5727 111.986 30.6118 100.176 18.4051 74.0984L18.3976 74.0909Z" fill="white"/>
<path d="M229.81 123.555C229.81 123.555 232.817 119.161 230.222 113.972C227.628 108.784 221.555 98.5267 219.965 99.2915C218.376 100.056 221.285 109.759 220.67 111.911C220.055 114.062 222.792 122.168 227.688 126.592C227.688 126.592 231.4 133.145 229.81 123.562V123.555Z" fill="#C7C7C7"/>
<path d="M230.148 115.772C230.148 115.772 232.322 117.242 231.422 119.221C230.53 121.201 227.591 121.778 228.101 119.986C228.611 118.194 228.611 115.127 230.148 115.772Z" fill="white"/>
<path d="M220.85 103.948C220.85 103.948 222.394 109.661 221.607 112.083C220.827 114.505 223.677 117.444 223.677 117.444" stroke="#E6E6E6" stroke-width="2.24939" stroke-linecap="round" stroke-linejoin="round"/>
<path d="M226.369 124.964C226.369 124.964 226.376 126.464 228.978 128.368" stroke="#E6E6E6" stroke-width="2.24939" stroke-linecap="round" stroke-linejoin="round"/>
<path d="M133.934 21.995C131.977 20.6304 129.922 23.562 131.812 25.0241C135.778 28.0758 140.622 33.3994 140.404 41.1523C140.075 52.9016 146.725 47.5555 146.815 46.7607C146.883 46.1459 141.379 27.1911 133.934 22.0025V21.995Z" fill="#878787"/>
<path d="M130.655 47.4721C131.362 47.2382 131.704 46.3474 131.418 45.4824C131.132 44.6174 130.327 44.1057 129.619 44.3396C128.911 44.5736 128.57 45.4645 128.855 46.3295C129.141 47.1945 129.947 47.706 130.655 47.4721Z" fill="#E2E2E2"/>
<path d="M110.578 28.4881C110.578 28.4881 117.918 29.0205 118.975 34.3216C120.04 39.6301 121.262 47.5405 126.233 42.3969C131.212 37.2533 124.929 24.7092 120.385 24.7092C115.841 24.7092 110.57 28.4806 110.57 28.4806L110.578 28.4881Z" fill="#878787"/>
<path d="M60.0334 195.94L56.8318 233.115" stroke="#8B8B8B" stroke-width="1.49959" stroke-linecap="round" stroke-linejoin="round"/>
<path d="M68.3713 196.63L67.6965 205.44" stroke="#8B8B8B" stroke-width="1.49959" stroke-linecap="round" stroke-linejoin="round"/>
<path d="M71.993 217.354L70.4559 234.645" stroke="#8B8B8B" stroke-width="1.49959" stroke-linecap="round" stroke-linejoin="round"/>
<path d="M49.3565 232.066L49.8214 223.391" stroke="#8B8B8B" stroke-width="1.49959" stroke-linecap="round" stroke-linejoin="round"/>
<path d="M65.4322 220.916L64.5924 229.089" stroke="#8B8B8B" stroke-width="1.49959" stroke-linecap="round" stroke-linejoin="round"/>
<path d="M163.011 192.064L179.806 194.426C184.02 195.018 188.211 193.174 190.626 189.665L212.587 157.828C213.877 155.954 214.544 153.787 214.582 151.605C214.612 149.776 214.207 147.939 213.345 146.251L192.965 106.505C191.293 103.236 188.136 100.986 184.507 100.484L160.109 97.0573L141.289 94.418C137.075 93.8257 132.884 95.6702 130.47 99.1792L109.49 129.583L108.508 131.016C106.154 134.442 105.854 138.896 107.758 142.592L128.138 182.339C128.948 183.906 130.087 185.241 131.452 186.253C132.944 187.363 134.698 188.098 136.588 188.36L140.307 188.877H140.314L149.694 190.197L162.996 192.064H163.003H163.011Z" stroke="white" stroke-width="2.99919" stroke-linecap="round" stroke-linejoin="round"/>
<path d="M69.6011 126.667L86.3965 129.028C90.6104 129.621 94.8017 127.776 97.2161 124.267L119.178 92.4308C120.467 90.5563 121.135 88.3895 121.172 86.2076C121.202 84.3781 120.797 82.541 119.935 80.854L99.5554 41.1073C97.8834 37.8382 94.7268 35.5887 91.0978 35.0864L66.6994 31.6598L47.8795 29.0205C43.6656 28.4282 39.4743 30.2727 37.0599 33.7817L16.0806 64.186L15.0984 65.6181C12.744 69.0446 12.4441 73.4985 14.3486 77.195L34.728 116.942C35.5378 118.509 36.6775 119.843 38.0421 120.856C39.5342 121.965 41.2888 122.7 43.1783 122.963L46.8972 123.48H46.9047L56.2847 124.8L69.5861 126.667H69.5936H69.6011Z" stroke="white" stroke-width="2.99919" stroke-linecap="round" stroke-linejoin="round"/>
<path d="M66.3544 233.28L83.1498 235.642C87.3637 236.235 91.555 234.39 93.9694 230.881L115.931 199.045C117.221 197.17 117.888 195.003 117.925 192.821C117.955 190.992 117.551 189.155 116.688 187.468L96.3088 147.721C94.6367 144.452 91.4801 142.203 87.851 141.7L63.4526 138.274L44.6328 135.634C40.4189 135.042 36.2275 136.886 33.8132 140.396L12.8339 170.8L11.8517 172.232C9.49729 175.659 9.19737 180.112 11.1019 183.809L31.4813 223.555C32.2911 225.123 33.4308 226.457 34.7954 227.469C36.2875 228.579 38.042 229.314 39.9315 229.576L43.6505 230.094H43.658L53.038 231.413L66.3394 233.28H66.3469H66.3544Z" stroke="white" stroke-width="2.99919" stroke-linecap="round" stroke-linejoin="round"/>
<path d="M39.7743 22.9996C41.5438 22.4597 43.4333 22.2948 45.3378 22.5572L46.8824 22.7746L62.943 25.024L79.1836 27.3034L94.2545 29.4104C97.1488 29.8153 99.7806 31.1948 101.738 33.2718C102.562 34.134 103.267 35.1163 103.829 36.211L110.9 49.9623L126.901 81.0863C128.843 84.8653 128.76 89.3491 126.751 93.0231C126.541 93.413 126.308 93.7954 126.053 94.1703L123.827 97.3944L110.908 116.072L101.198 130.116C101.07 130.295 100.943 130.475 100.8 130.648C98.026 134.262 93.4973 136.121 88.9385 135.484L40.0143 128.631C39.6694 128.586 39.3394 128.518 39.002 128.451C35.328 127.634 32.1714 125.219 30.4394 121.838L18.6676 98.9315L7.37562 76.9549C5.21621 72.7711 5.5536 67.74 8.23038 63.871L19.2224 47.9753L32.4338 28.878L33.0861 27.9332C34.2483 26.2462 35.7779 24.8966 37.5174 23.9594C38.2147 23.577 38.9496 23.2695 39.7068 23.0221" stroke="#0D0D0D" stroke-width="1.49959" stroke-linecap="round" stroke-linejoin="round"/>
<path d="M89.1107 1.85547C89.0357 1.87796 88.9757 1.90794 88.9007 1.93794L88.2484 2.21536" stroke="#0D0D0D" stroke-width="1.49959" stroke-linecap="round" stroke-linejoin="round"/>
<path d="M177.774 69.4495C177.902 69.0746 178.007 68.6997 178.089 68.3173C178.742 65.4381 178.389 62.3639 177.002 59.6497L153.931 14.7669C153.174 13.3048 152.161 12.0151 150.947 10.9729C149.117 9.38329 146.838 8.32607 144.363 7.97367L122.229 4.877H122.222L117.086 4.14972L107.203 2.76262L101.333 1.94537H101.325L95.4392 1.12052C93.2873 0.820597 91.1578 1.09056 89.2084 1.81787" stroke="#0D0D0D" stroke-width="1.49959" stroke-linecap="round" stroke-linejoin="round"/>
<path d="M89.9129 1.5105L89.2006 1.81794L89.1106 1.85547L39.774 22.9997L39.7065 23.0222L37.5171 23.9595" stroke="#0D0D0D" stroke-width="1.49959" stroke-linecap="round" stroke-linejoin="round"/>
<path d="M99.8254 132.95L95.2441 134.914" stroke="#0D0D0D" stroke-width="1.49959" stroke-linecap="round" stroke-linejoin="round"/>
<path d="M150.939 10.9729L130.507 20.2329L101.745 33.2643" stroke="#0D0D0D" stroke-width="1.49959" stroke-linecap="round" stroke-linejoin="round"/>
<path d="M59.7339 149.97C59.9888 149.917 60.2812 149.895 60.5586 149.895C60.6636 149.895 60.7911 149.887 60.896 149.887C60.896 149.887 61.2484 149.85 61.7958 149.902C62.0357 149.91 62.3132 149.947 62.6206 149.992C63.1004 150.052 63.6478 150.172 64.2251 150.345H64.2326C66.5195 151.087 69.2263 152.924 69.6612 157.52L73.0278 159.312L68.7464 160.107C68.7464 160.107 66.467 163.106 62.3506 163.159C61.4059 163.181 60.3712 163.046 59.2165 162.679C58.8041 162.552 58.4217 162.387 58.0468 162.214" stroke="#959595" stroke-width="1.49959" stroke-linecap="round" stroke-linejoin="round"/>
<path d="M58.0318 162.229C53.8554 160.28 53.0756 156.096 54.7627 153.164C55.7074 151.5 57.4094 150.233 59.7263 149.955" stroke="#959595" stroke-width="1.49959" stroke-linecap="round" stroke-linejoin="round"/>
<path d="M62.628 150C63.0404 149.603 66.4369 146.154 63.2353 145.232C61.6232 144.774 61.5108 146.919 61.6307 148.471C61.6757 149.086 61.7432 149.618 61.7882 149.835" stroke="#959595" stroke-width="1.49959" stroke-linecap="round" stroke-linejoin="round"/>
<path d="M61.7958 149.91C61.7958 149.91 61.7883 149.873 61.7808 149.858V149.835C61.7733 149.61 61.7283 149.078 61.6233 148.471C61.3384 146.919 60.6861 144.842 59.209 145.629C56.4872 147.114 60.5586 149.903 60.5586 149.903" stroke="#959595" stroke-width="1.49959" stroke-linecap="round" stroke-linejoin="round"/>
<path d="M54.0651 149.355L54.7625 153.164L51.4484 151.155" stroke="#959595" stroke-width="1.49959" stroke-linecap="round" stroke-linejoin="round"/>
<path d="M64.2251 150.368C64.2251 150.368 67.9366 158.143 62.3582 163.159V163.182" stroke="#959595" stroke-width="1.49959" stroke-linecap="round" stroke-linejoin="round"/>
<path d="M59.7263 149.955V149.97C59.8988 150.442 62.733 158.465 58.0468 162.222H58.0318" stroke="#959595" stroke-width="1.49959" stroke-linecap="round" stroke-linejoin="round"/>
<path d="M56.0749 155.983C56.1574 156.276 56.4423 156.456 56.7347 156.396C57.0197 156.321 57.2071 156.036 57.1321 155.751C57.0797 155.451 56.7872 155.264 56.4873 155.324C56.2024 155.406 55.9999 155.699 56.0749 155.983Z" stroke="#959595" stroke-width="1.49959" stroke-linecap="round" stroke-linejoin="round"/>
<path d="M199.023 189.162L219.35 159.77C220.183 158.556 220.797 157.221 221.165 155.849C221.982 152.827 221.675 149.558 220.205 146.686L197.134 101.803C196.579 100.716 195.867 99.7265 195.042 98.8567C193.085 96.7873 190.461 95.4076 187.567 95.0027L163.123 91.5836L138.635 88.1571C136.738 87.8947 134.848 88.0596 133.079 88.5994" stroke="#0D0D0D" stroke-width="1.49959" stroke-linecap="round" stroke-linejoin="round"/>
<path d="M189.621 199.899C191.541 198.962 193.228 197.537 194.495 195.715L199.016 189.169" stroke="#0D0D0D" stroke-width="1.49959" stroke-linecap="round" stroke-linejoin="round"/>
<path d="M159.824 197.95L182.235 201.084C184.395 201.384 186.539 201.121 188.496 200.387" stroke="#0D0D0D" stroke-width="1.49959" stroke-linecap="round" stroke-linejoin="round"/>
<path d="M133.004 88.6294C132.247 88.8768 131.519 89.1842 130.814 89.5666C129.255 90.3989 127.86 91.5686 126.751 93.0232C126.623 93.1881 126.496 93.3605 126.376 93.533L123.819 97.2295L110.9 115.907L101.52 129.478C101.257 129.861 101.017 130.251 100.793 130.655C100.395 131.398 100.073 132.17 99.8253 132.957C98.8581 136.099 99.128 139.548 100.673 142.562L123.744 187.445C125.333 190.542 128.1 192.814 131.369 193.803C131.999 194.006 132.651 194.148 133.311 194.238L155.588 197.357L159.824 197.957" stroke="#0D0D0D" stroke-width="1.49959" stroke-linecap="round" stroke-linejoin="round"/>
<path d="M240.637 177.975C239.745 178.507 238.8 178.927 237.803 179.235H237.781" stroke="#0D0D0D" stroke-width="1.49959" stroke-linecap="round" stroke-linejoin="round"/>
<path d="M181.553 67.8075L182.205 67.5301C182.34 67.4776 182.468 67.4251 182.603 67.3801C184.522 66.6753 186.622 66.4353 188.729 66.7203L237.66 73.5809C240.127 73.9258 242.407 74.983 244.236 76.5726C245.451 77.6223 246.47 78.912 247.228 80.3741L270.299 125.257C271.664 127.926 272.024 130.933 271.424 133.76C271.079 135.387 270.419 136.946 269.452 138.341L266.887 142.045L244.588 174.286C243.539 175.808 242.204 177.045 240.675 177.96" stroke="#0D0D0D" stroke-width="1.49959" stroke-linecap="round" stroke-linejoin="round"/>
<path d="M130.814 89.5666L133.004 88.6294L133.071 88.5994L165.86 74.5482H165.867L177.774 69.4495L182.603 67.3801L183.218 67.1177" stroke="#0D0D0D" stroke-width="1.49959" stroke-linecap="round" stroke-linejoin="round"/>
<path d="M240.667 177.953L240.637 177.975L189.621 199.899L188.496 200.386" stroke="#0D0D0D" stroke-width="1.49959" stroke-linecap="round" stroke-linejoin="round"/>
<path d="M195.035 98.864L244.236 76.5725" stroke="#0D0D0D" stroke-width="1.49959" stroke-linecap="round" stroke-linejoin="round"/>
<path d="M221.165 155.849L271.424 133.752" stroke="#0D0D0D" stroke-width="1.49959" stroke-linecap="round" stroke-linejoin="round"/>
<path d="M266.888 142.038L243.516 151.515" stroke="#0D0D0D" stroke-width="1.49959" stroke-linecap="round" stroke-linejoin="round"/>
<path d="M216.479 172.974L239.437 164.419" stroke="#0D0D0D" stroke-width="1.49959" stroke-linecap="round" stroke-linejoin="round"/>
<path d="M199.016 189.17L199.023 189.162L224.359 179.235" stroke="#0D0D0D" stroke-width="1.49959" stroke-linecap="round" stroke-linejoin="round"/>
<path d="M237.031 175.043L246.636 171.062" stroke="#0D0D0D" stroke-width="1.49959" stroke-linecap="round" stroke-linejoin="round"/>
<path d="M227.718 127.229C227.718 127.229 230.807 131.113 230.148 125.977C229.48 120.848 235.246 122.483 229.338 111.513C223.422 100.544 218.631 95.3475 219.275 101.361C219.928 107.374 221.052 110.636 220.018 112.24C218.983 113.845 222.68 118.404 222.68 118.404" stroke="#979797" stroke-width="1.49959" stroke-linecap="round" stroke-linejoin="round"/>
<path d="M34.0532 130.573C32.3137 131.503 30.7841 132.86 29.6145 134.547L4.76618 170.492C2.08191 174.361 1.7595 179.392 3.90392 183.576L26.9752 228.459C28.8721 232.14 32.4412 234.682 36.5501 235.252L85.4743 242.105C88.0536 242.465 90.6179 242.023 92.8598 240.921C94.7793 239.983 96.4663 238.559 97.7335 236.737L102.255 230.191L122.589 200.784C123.422 199.577 124.029 198.242 124.404 196.87C125.221 193.856 124.914 190.572 123.444 187.7L100.373 142.817C98.4758 139.136 94.9142 136.594 90.8054 136.024L41.8811 129.171C39.9391 128.901 37.9972 129.081 36.1977 129.658C35.4554 129.898 34.7431 130.205 34.0532 130.58V130.573Z" stroke="#0D0D0D" stroke-width="1.49959" stroke-linecap="round" stroke-linejoin="round"/>
<path d="M46.6273 154.041L52.7157 165.888C53.2181 166.87 54.1628 167.538 55.25 167.688L68.169 169.495C69.4286 169.667 70.6733 169.12 71.4006 168.078L77.9688 158.585C78.6736 157.565 78.7636 156.238 78.1938 155.129L72.1054 143.289C71.6031 142.307 70.6658 141.64 69.5711 141.49L56.6521 139.683C55.3925 139.503 54.1478 140.05 53.4205 141.1L46.8523 150.585C46.1475 151.612 46.065 152.939 46.6273 154.041Z" stroke="#9B9B9B" stroke-width="1.49959" stroke-linecap="round" stroke-linejoin="round"/>
<path d="M143.876 218.981C142.991 219.514 142.039 219.934 141.042 220.241H141.019" stroke="#0D0D0D" stroke-width="1.49959" stroke-linecap="round" stroke-linejoin="round"/>
<path d="M159.824 197.95H159.816L147.82 215.293C146.77 216.815 145.435 218.052 143.906 218.967" stroke="#0D0D0D" stroke-width="1.49959" stroke-linecap="round" stroke-linejoin="round"/>
<path d="M34.0533 130.573L34.0908 130.551L36.1077 129.688L36.1902 129.643L39.0019 128.451" stroke="#0D0D0D" stroke-width="1.49959" stroke-linecap="round" stroke-linejoin="round"/>
<path d="M143.906 218.966L143.876 218.981L92.8596 240.905L91.7349 241.393" stroke="#0D0D0D" stroke-width="1.49959" stroke-linecap="round" stroke-linejoin="round"/>
<path d="M131.362 193.796L124.404 196.855" stroke="#0D0D0D" stroke-width="1.49959" stroke-linecap="round" stroke-linejoin="round"/>
<path d="M41.4836 230.281C41.4836 230.281 39.969 200.574 49.8663 195.453C55.8347 192.371 62.2455 192.993 67.0892 195.805C70.6132 197.852 73.3125 201.046 74.4297 204.833C76.4241 211.611 73.5674 234.645 73.5674 234.645" stroke="#0D0D0D" stroke-width="1.49959" stroke-linecap="round" stroke-linejoin="round"/>
<path d="M46.3048 231.031C46.3048 231.031 44.9102 206.362 52.5806 198.804C58.0766 193.383 67.0892 195.813 67.0892 195.813" stroke="#0D0D0D" stroke-width="1.49959" stroke-linecap="round" stroke-linejoin="round"/>
<path d="M56.6072 209.714C56.6072 211.221 55.3926 212.436 53.8855 212.436C52.3784 212.436 51.1562 211.221 51.1562 209.714C51.1562 208.207 52.3709 206.985 53.8855 206.985C55.4 206.985 56.6072 208.207 56.6072 209.714Z" stroke="#0D0D0D" stroke-width="1.49959" stroke-linecap="round" stroke-linejoin="round"/>
<path d="M117.828 208.012L134.773 200.664" stroke="#0D0D0D" stroke-width="1.49959" stroke-linecap="round" stroke-linejoin="round"/>
<path d="M124.404 213.988L147.348 205.44" stroke="#0D0D0D" stroke-width="1.49959" stroke-linecap="round" stroke-linejoin="round"/>
<path d="M102.247 230.183L127.598 220.249" stroke="#0D0D0D" stroke-width="1.49959" stroke-linecap="round" stroke-linejoin="round"/>
<path d="M140.269 216.057L149.874 212.068" stroke="#0D0D0D" stroke-width="1.49959" stroke-linecap="round" stroke-linejoin="round"/>
<path d="M162.958 193.413L180.203 195.835C184.53 196.443 188.834 194.553 191.315 190.954L213.862 158.353C215.181 156.433 215.864 154.214 215.909 151.98C215.939 150.113 215.526 148.223 214.634 146.499L193.707 105.8C191.99 102.448 188.751 100.146 185.025 99.6288L159.981 96.1198L140.659 93.413C136.333 92.8057 132.029 94.6952 129.547 98.2942L108.013 129.426L107.001 130.888C104.579 134.397 104.279 138.956 106.229 142.75L127.155 183.449C127.98 185.053 129.15 186.418 130.559 187.46C132.089 188.6 133.896 189.349 135.838 189.619L139.654 190.152H139.662L149.289 191.501L162.943 193.413H162.951H162.958Z" stroke="#0D0D0D" stroke-width="1.49959" stroke-linecap="round" stroke-linejoin="round"/>
<path d="M122.612 86.3725C122.642 84.5055 122.229 82.6159 121.337 80.8914L100.41 40.1925C98.6933 36.8409 95.4541 34.539 91.7276 34.0216L66.6844 30.5126L47.3622 27.8059C43.0359 27.1985 38.732 29.088 36.2502 32.687L14.716 63.8185L13.7038 65.2807C11.282 68.7897 10.9821 73.3485 12.9315 77.1424L33.8583 117.841C34.6831 119.446 35.8528 120.811 37.2624 121.853C38.792 122.992 40.599 123.742 42.541 124.012L46.3575 124.545L55.9923 125.894L69.6461 127.806H69.6536L86.8989 130.228C91.2253 130.835 95.5291 128.946 98.0109 125.347L120.557 92.7457C121.877 90.8263 122.559 88.6069 122.604 86.3725H122.612Z" stroke="#0D0D0D" stroke-width="1.49959" stroke-linecap="round" stroke-linejoin="round"/>
<path d="M73.4551 235.439L83.4424 236.842C87.7687 237.449 92.0725 235.559 94.5544 231.96L117.101 199.359C118.42 197.44 119.103 195.22 119.148 192.986C119.178 191.119 118.765 189.23 117.873 187.505L96.9462 146.806C95.2292 143.454 91.99 141.153 88.2635 140.635L63.2203 137.126L43.8981 134.419C39.5718 133.812 35.2679 135.702 32.7861 139.301L11.2519 170.432L10.2397 171.894C7.81787 175.403 7.51795 179.962 9.46742 183.756L30.3942 224.455C31.219 226.06 32.3887 227.424 33.7983 228.466C35.3279 229.606 37.1349 230.356 39.0769 230.626L41.3938 230.956L42.9009 231.166L46.2299 231.638L52.5432 232.523L66.197 234.435H66.2045L73.4626 235.454L73.4551 235.439Z" stroke="#0D0D0D" stroke-width="1.49959" stroke-linecap="round" stroke-linejoin="round"/>
<path d="M142.204 40.1474C141.132 36.0385 137.945 29.6202 135.838 26.0212C135.246 25.009 134.751 24.2366 134.421 23.8018C132.501 21.3199 123.144 20.9 127.605 28.308C128.505 29.7926 129.217 31.1573 129.78 32.387C132.629 38.6853 131.279 42.0143 126.833 42.6742C124.644 43.0041 123.414 41.4295 122.522 39.2326C121.172 35.9485 120.572 31.2398 118.668 29.4628C116.358 27.2958 113.089 28.2406 111.365 28.9904C111.245 29.0354 111.125 29.0653 110.982 29.0653C110.352 29.0878 109.633 28.5929 109.4 27.9181C106.903 20.6901 119.38 20.4052 119.38 20.4052C120.422 13.777 123.834 10.8678 128.138 12.5324C130.499 13.4396 133.079 15.7265 135.613 19.438C136.138 20.2103 136.655 21.02 137.18 21.8523C140.074 26.546 142.721 32.0721 144.491 36.6008" fill="#C7C7C7"/>
<path d="M142.204 40.1474C141.132 36.0385 137.945 29.6202 135.838 26.0212C135.246 25.009 134.751 24.2366 134.421 23.8018C132.501 21.3199 123.144 20.9 127.605 28.308C128.505 29.7926 129.217 31.1573 129.78 32.387C132.629 38.6853 131.279 42.0143 126.833 42.6742C124.644 43.0041 123.414 41.4295 122.522 39.2326C121.172 35.9485 120.572 31.2398 118.668 29.4628C116.358 27.2958 113.089 28.2406 111.365 28.9904C111.245 29.0354 111.125 29.0653 110.982 29.0653C110.352 29.0878 109.633 28.5929 109.4 27.9181C106.903 20.6901 119.38 20.4052 119.38 20.4052C120.422 13.777 123.834 10.8678 128.138 12.5324C130.499 13.4396 133.079 15.7265 135.613 19.438C136.138 20.2103 136.655 21.02 137.18 21.8523C140.074 26.546 142.721 32.0721 144.491 36.6008" stroke="#979797" stroke-width="0.749797" stroke-miterlimit="10"/>
<path d="M144.506 36.6084C146.38 41.4146 147.302 45.2011 146.56 45.9658C145.008 47.5554 142.054 46.8132 142.556 43.0042C142.654 42.2919 142.511 41.3021 142.204 40.1474C143.043 38.9627 143.808 37.7856 144.506 36.6084Z" fill="#C7C7C7"/>
<path d="M113.284 25.4513C113.539 25.0389 113.906 24.769 114.379 24.5291C114.851 24.2891 115.428 24.1242 115.991 23.9742C117.348 23.6143 118.705 23.2694 120.122 23.4493C120.624 23.5093 121.059 22.977 121.059 22.5121C121.059 21.9497 120.624 21.6348 120.122 21.5748C118.495 21.3724 116.831 21.7923 115.271 22.2272C113.861 22.6171 112.467 23.2169 111.672 24.5066C111.035 25.5338 112.654 26.4785 113.291 25.4513H113.284Z" fill="#E6E6E6"/>
<path d="M127.718 13.3946C126.06 13.0497 124.119 13.0947 122.851 14.3694C122.581 14.6393 122.282 14.8867 122.027 15.1716C121.959 15.2466 121.899 15.3141 121.839 15.3966L121.689 15.584C121.727 15.5091 121.712 15.5166 121.644 15.6066C121.502 15.719 121.374 15.8764 121.262 16.0189C120.954 16.3938 120.782 16.8212 120.617 17.1586C120.4 17.5935 120.175 18.0284 120.017 18.4933C119.86 18.9581 120.205 19.5205 120.669 19.648C121.187 19.7904 121.659 19.4755 121.824 18.9957C121.922 18.7032 122.079 18.4258 122.237 18.1109C122.341 17.9084 122.409 17.6835 122.521 17.481C122.484 17.5485 122.746 17.1586 122.649 17.2786C122.746 17.1586 122.859 17.0462 122.971 16.9412C123.084 16.8362 123.159 16.7387 123.256 16.6113C123.174 16.7087 123.286 16.5738 123.316 16.5438C123.549 16.2889 123.804 16.0565 124.051 15.8165C124.141 15.7265 124.231 15.6366 124.321 15.5391C124.486 15.3591 124.261 15.5691 124.373 15.5016C124.433 15.4641 124.501 15.4191 124.561 15.3891C124.561 15.3891 124.823 15.2617 124.666 15.3291C124.741 15.2991 124.808 15.2767 124.883 15.2542C125.033 15.2092 125.191 15.1717 125.348 15.1417C125.393 15.1342 125.566 15.1117 125.438 15.1267C125.536 15.1192 125.641 15.1117 125.738 15.1042C125.911 15.0967 126.076 15.0967 126.248 15.1042C126.675 15.1192 126.833 15.1417 127.208 15.2242C127.703 15.3291 128.22 15.0817 128.362 14.5718C128.49 14.107 128.205 13.5221 127.71 13.4171L127.718 13.3946Z" fill="#E6E6E6"/>
<path d="M129.172 46.6107C129.172 46.6107 129.097 48.6276 130.882 47.9678C132.651 47.3005 131.017 45.4709 131.017 45.4709" stroke="#979797" stroke-width="1.49959" stroke-linecap="round" stroke-linejoin="round"/>
<path d="M123.519 37.5605C123.519 37.5605 124.629 41.5345 126.241 41.1146" stroke="white" stroke-width="2.24939" stroke-linecap="round" stroke-linejoin="round"/>
<path d="M110.577 27.4007C110.577 27.4007 110.577 22.6471 115.278 22.4746" stroke="white" stroke-width="2.24939" stroke-linecap="round" stroke-linejoin="round"/>
<path d="M129.172 13.0347C124.868 11.3626 120.407 13.7845 119.365 20.4127C119.365 20.4127 106.881 20.6976 109.385 27.9256C109.617 28.6004 110.337 29.0953 110.967 29.0728C111.102 29.0728 111.229 29.0428 111.349 28.9979C113.074 28.2556 116.343 27.3108 118.652 29.4702C120.549 31.2472 121.157 35.956 122.506 39.2401C123.399 41.437 124.628 43.0116 126.818 42.6816C131.272 42.0218 132.614 38.6927 129.764 32.3945C129.202 31.1648 128.49 29.8001 127.59 28.3155C123.121 20.9075 132.479 21.3274 134.406 23.8092C134.736 24.2366 135.23 25.009 135.823 26.0287C137.93 29.6277 141.109 36.0384 142.189 40.1548C142.496 41.3095 142.638 42.2992 142.541 43.0115C142.039 46.828 144.993 47.5628 146.545 45.9733C147.287 45.201 146.365 41.4145 144.49 36.6158C142.713 32.087 140.067 26.561 137.172 21.8673C136.655 21.0275 136.13 20.2178 135.605 19.453C133.071 15.7415 131.541 13.9494 129.18 13.0347H129.172Z" stroke="#979797" stroke-width="1.49959" stroke-linecap="round" stroke-linejoin="round"/>
<path d="M88.1512 3.62496C86.4116 5.08707 84.6046 6.39921 82.6026 7.65137C80.5857 8.91103 78.4863 10.0282 76.3194 11.0029C75.3971 11.4228 75.1722 12.7575 75.6445 13.5673C76.1994 14.5195 77.2791 14.6544 78.2089 14.242C82.7601 12.1876 86.974 9.4883 90.7979 6.27168C91.5702 5.61935 91.4727 4.29227 90.7979 3.61746C90.0331 2.85267 88.9234 2.96513 88.1437 3.61746L88.1512 3.62496Z" fill="white"/>
<path d="M67.0516 14.3995C65.552 15.1643 64.03 15.8765 62.4854 16.5289L62.9352 16.3414C62.8752 16.3639 62.8228 16.3864 62.7628 16.4089C62.2904 16.6038 61.9155 16.8063 61.6456 17.2712C61.4131 17.676 61.3082 18.2684 61.4581 18.7183C61.6081 19.1682 61.8855 19.6106 62.3204 19.8355C62.7553 20.0604 63.3101 20.2179 63.7675 20.0229C65.522 19.2881 67.2541 18.5008 68.9486 17.631C69.3535 17.4211 69.6909 16.9412 69.8109 16.5139C69.9308 16.0865 69.8784 15.4642 69.6234 15.0668C69.0461 14.1745 67.9964 13.9196 67.0591 14.392L67.0516 14.3995Z" fill="white"/>
<path d="M230.432 75.6279C225.948 78.0573 221.427 80.4192 216.868 82.706C215.961 83.1559 215.706 84.4381 216.194 85.2704C216.734 86.1926 217.851 86.395 218.758 85.9451C223.317 83.6582 227.838 81.3039 232.322 78.8671C233.214 78.3872 233.491 77.1575 232.997 76.3027C232.472 75.403 231.325 75.148 230.432 75.6279Z" fill="white"/>
<path d="M212.19 85.8773C211.223 86.0048 210.285 86.1698 209.363 86.4922C208.456 86.8071 207.571 87.2045 206.746 87.6994C206.341 87.9468 206.012 88.3592 205.884 88.8166C205.757 89.2739 205.817 89.8662 206.072 90.2636C206.619 91.1109 207.736 91.4783 208.636 90.9384C209.116 90.6535 209.618 90.3986 210.135 90.1811L209.686 90.3686C210.623 89.9787 211.605 89.7163 212.61 89.5814L212.115 89.6488H212.197C212.452 89.6488 212.7 89.5964 212.917 89.4764C213.15 89.4014 213.352 89.2739 213.517 89.0865C213.839 88.7641 214.087 88.2242 214.064 87.7593C214.042 87.2944 213.884 86.7696 213.517 86.4322C213.18 86.1172 212.67 85.8248 212.19 85.8848V85.8773Z" fill="white"/>
<path d="M45.1275 40.6273C50.4436 41.1896 55.7521 41.752 61.0682 42.3143C63.79 42.5993 66.5042 42.8917 69.226 43.1766C71.5654 43.424 73.9422 43.589 76.2216 44.2188C80.6304 45.4335 83.5021 49.1524 86.4488 52.4066C89.613 55.8931 92.7546 59.4247 95.5439 63.2262C97.1109 65.3556 98.5656 67.5675 99.8627 69.8769C100.508 71.024 101.16 72.2012 101.647 73.4309C101.887 74.0457 102.09 74.6681 102.24 75.3129C102.3 75.5603 102.3 75.8902 102.397 76.1151C102.607 76.5875 102.232 76.1601 102.532 75.9202L103.357 75.4403C104.526 75.0054 104.301 76.1227 104.062 75.3354C103.979 75.0505 103.717 74.7355 103.574 74.4731C103.312 73.9857 103.064 73.4984 102.832 72.996C102.292 71.8489 101.857 70.6492 101.505 69.4345C100.822 67.0951 100.56 64.6808 98.9404 62.7388C98.2656 61.9365 97.4334 61.2991 96.6311 60.6318C95.5964 59.777 94.6516 58.8323 93.7294 57.8576C92.1173 56.1481 90.5502 54.401 88.8257 52.7965C85.5116 49.6998 81.8226 46.933 77.7587 44.8861C73.2749 42.6292 68.4087 41.4445 63.5425 40.3198C57.5667 38.9402 51.4933 38.003 45.45 36.9608C44.4527 36.7883 43.433 37.2232 43.1406 38.2729C42.8931 39.1727 43.448 40.4023 44.4527 40.5823C50.0762 41.557 55.7297 42.4192 61.3006 43.6639C66.2868 44.7736 71.4154 45.8683 75.9967 48.2002C80.098 50.2921 83.757 53.0889 87.0487 56.2906C88.8482 58.0376 90.4602 59.9646 92.2447 61.7266C93.8343 63.3011 96.2112 64.5233 96.9385 66.7502C97.2984 67.8524 97.4858 69.0071 97.7933 70.1243C98.1607 71.4514 98.6405 72.7336 99.1879 73.9932C100.02 75.9352 101.407 79.8191 104.174 79.1293C107.083 78.402 106.048 74.5406 105.314 72.5986C104.399 70.1843 103.109 67.9049 101.745 65.7155C99.0304 61.3591 95.7913 57.3403 92.4172 53.4863C90.7377 51.5668 89.0206 49.6848 87.3036 47.8028C85.6615 46.0108 83.997 44.2488 82.0025 42.8392C79.6032 41.1446 76.7914 40.3724 73.9122 39.975C70.7556 39.5401 67.5689 39.2701 64.3973 38.9327C57.9715 38.2504 51.5458 37.5756 45.12 36.8933C44.1153 36.7883 43.2455 37.8306 43.2455 38.7678C43.2455 39.87 44.1078 40.5373 45.12 40.6423L45.1275 40.6273Z" fill="white"/>
<path d="M205.749 48.3953C205.434 48.0879 204.939 48.1104 204.632 48.4253C204.347 48.7552 204.354 49.2801 204.692 49.5575C205.029 49.8349 205.517 49.8199 205.824 49.4975C206.109 49.1676 206.086 48.6727 205.749 48.3878V48.3953Z" fill="#272727"/>
<path d="M212.265 55.376C205.629 56.5532 201.19 52.2118 200.756 47.3007C200.493 44.5189 201.46 41.5797 203.995 39.3003L204.017 39.3153C204.609 39.7277 214.717 46.9407 212.272 55.3535L212.257 55.376H212.265ZM204.692 49.5651C205.022 49.85 205.517 49.8274 205.824 49.505C206.109 49.1751 206.087 48.6803 205.749 48.3953C205.434 48.0879 204.939 48.1104 204.632 48.4254C204.347 48.7553 204.355 49.2801 204.692 49.5576V49.5651Z" fill="#DFDFDF"/>
<path d="M207.496 36.9159C207.084 37.1333 206.724 37.3133 206.432 37.5007C205.727 37.9056 205.337 38.2355 205.337 38.2355C205.209 38.3255 205.067 38.438 204.939 38.5279C204.617 38.7679 204.272 39.0228 204.025 39.3077C204.617 39.7201 214.724 46.9332 212.28 55.3459C212.865 55.2409 213.457 55.1134 214.064 54.9185C215.744 54.3861 217.094 53.6813 218.211 52.8565C220.67 42.1869 209.716 36.0086 209.716 36.0086V35.9712C208.868 36.2561 208.111 36.586 207.489 36.9084L207.496 36.9159Z" fill="#878787"/>
<path d="M199.743 34.5617C197.741 38.6256 204.939 38.5355 204.939 38.5355C205.067 38.4456 205.209 38.3331 205.337 38.2431C205.337 38.2431 205.727 37.9057 206.431 37.5083L206.356 37.4634C206.147 37.2609 205.599 36.6686 205.007 35.9413C203.365 34.3367 200.838 32.3948 199.743 34.5692V34.5617Z" fill="white"/>
<path d="M205.007 35.9336C205.599 36.6609 206.147 37.2533 206.357 37.4557C206.177 37.2008 205.644 36.5859 205.007 35.9336Z" fill="white"/>
<path d="M204.212 30.715C201.903 31.5248 203.56 34.1716 204.999 35.9261C205.644 36.5784 206.169 37.1933 206.349 37.4482L206.424 37.4931C206.716 37.3057 207.076 37.1258 207.488 36.9084C207.646 36.0836 208.816 29.1105 204.212 30.7075V30.715Z" fill="white"/>
<path d="M209.723 36.016C209.723 36.016 220.678 42.1868 218.218 52.8639C223.092 49.3473 223.309 43.8588 223.309 43.8588L227.756 39.3076L222.23 39.9974C217.851 34.8688 213.067 34.9437 209.716 35.9784V36.016H209.723Z" fill="#DFDFDF"/>
<path d="M204.025 39.3153C204.28 39.0304 204.617 38.7679 204.939 38.5355C205.067 38.4455 205.209 38.333 205.337 38.2431C205.337 38.2431 205.727 37.9057 206.432 37.5083C206.724 37.3208 207.084 37.1408 207.496 36.9234C208.119 36.601 208.876 36.2711 209.716 35.9862C213.06 34.9514 217.843 34.884 222.23 40.0052L227.756 39.3153L223.309 43.8665C223.309 43.8665 223.092 49.3625 218.218 52.8716C217.101 53.6964 215.751 54.4012 214.072 54.9335C213.465 55.1285 212.865 55.256 212.287 55.361" stroke="#0D0D0D" stroke-width="1.92698" stroke-linecap="round" stroke-linejoin="round"/>
<path d="M212.265 55.376C205.629 56.5532 201.19 52.2118 200.756 47.3007C200.493 44.5189 201.46 41.5797 203.995 39.3003" stroke="#0D0D0D" stroke-width="1.92698" stroke-linecap="round" stroke-linejoin="round"/>
<path d="M207.496 36.9158C207.654 36.0911 208.823 29.118 204.22 30.7151C201.91 31.5249 203.567 34.1716 205.007 35.9262C205.599 36.6535 206.147 37.2458 206.356 37.4483" stroke="#0D0D0D" stroke-width="1.92698" stroke-linecap="round" stroke-linejoin="round"/>
<path d="M206.431 37.5008L206.356 37.4558C206.176 37.2009 205.644 36.586 205.007 35.9337C203.365 34.3291 200.838 32.3872 199.743 34.5616C197.741 38.6255 204.939 38.5355 204.939 38.5355" stroke="#0D0D0D" stroke-width="1.92698" stroke-linecap="round" stroke-linejoin="round"/>
<path d="M196.729 43.3267L200.755 47.3006L195.125 47.683" stroke="#0D0D0D" stroke-width="1.92698" stroke-linecap="round" stroke-linejoin="round"/>
<path d="M209.723 36.0161C209.723 36.0161 220.677 42.1869 218.218 52.864V52.9015" stroke="#0D0D0D" stroke-width="1.92698" stroke-linecap="round" stroke-linejoin="round"/>
<path d="M204.002 39.3003L204.024 39.3153C204.617 39.7277 214.724 46.9407 212.28 55.3535L212.265 55.376" stroke="#0D0D0D" stroke-width="1.92698" stroke-linecap="round" stroke-linejoin="round"/>
<path d="M204.692 49.565C205.022 49.8499 205.517 49.8274 205.824 49.505C206.109 49.1751 206.086 48.6802 205.749 48.3953C205.434 48.0879 204.939 48.1104 204.632 48.4253C204.347 48.7552 204.354 49.2801 204.692 49.5575V49.565Z" stroke="#0D0D0D" stroke-width="0.47987" stroke-linecap="round" stroke-linejoin="round"/>
<path d="M90.8058 229.321C89.5312 231.9 89.2312 234.457 90.7608 237.156C92.2004 239.691 94.2024 241.168 96.7892 241.783C97.389 241.925 97.614 242.465 97.2841 243.027C97.1041 243.35 96.8717 243.642 96.6542 243.942C96.1069 244.684 96.0694 245.307 96.5718 246.131C97.0441 246.919 97.674 247.549 98.4088 248.013C100.388 249.273 102.51 249.685 104.76 249.333C105.787 249.168 106.634 248.651 107.301 247.789C107.481 247.556 107.669 247.316 107.894 247.144C108.314 246.806 108.778 246.919 108.988 247.459C109.356 248.418 110.061 249.011 110.788 249.603C112.572 251.058 114.634 251.575 116.794 251.86C119.006 252.16 121.15 251.762 123.324 251.395C125.379 251.043 127.388 250.458 129.42 249.888C129.525 249.858 129.645 249.843 129.735 249.798C129.765 249.79 129.788 249.768 129.81 249.745C130.358 249.033 130.95 249.461 131.46 249.783C133.259 250.923 135.066 251.073 136.903 250.105C137.698 249.685 138.508 249.363 139.415 249.296C139.753 249.266 140.052 249.296 140.33 249.506C141.185 250.15 142.159 250.413 143.172 250.33C144.956 250.18 146.763 250.135 148.578 250.015C148.998 249.985 149.41 249.91 149.792 249.753C150.977 249.281 152.169 248.786 153.376 248.336C154.239 248.013 154.853 247.324 155.423 246.611C155.693 246.266 155.783 245.847 155.783 245.404C155.783 244.234 155.738 243.05 155.551 241.903C155.318 240.485 154.539 239.331 153.421 238.416C152.822 237.921 152.139 238.161 151.502 238.094C150.992 238.041 150.475 238.393 150.092 238.798C149.927 238.971 149.777 239.158 149.612 239.331C149.485 239.466 149.335 239.586 149.14 239.496C148.96 239.413 148.893 239.248 148.878 239.046C148.825 237.996 149.177 237.456 150.175 237.066C150.4 236.976 150.617 236.879 150.85 236.811C151.224 236.707 151.479 236.504 151.607 236.114C151.667 235.912 151.772 235.717 151.884 235.544C152.971 233.97 153.001 232.17 152.896 230.341C152.889 230.191 152.889 230.026 152.829 229.891C152.357 228.804 151.929 227.694 151.337 226.689C150.977 226.089 150.557 225.527 150.017 225.032C149.372 224.44 148.705 223.87 148.06 223.285C147.333 222.625 146.486 222.235 145.533 222.033C144.364 221.786 143.209 221.673 142.032 221.891C141.65 221.958 141.327 222.063 141.035 222.378C140.525 222.91 139.76 222.828 139.415 222.175C139.198 221.771 138.89 221.576 138.523 221.396C137.976 221.118 137.413 220.908 136.836 220.721C135.224 220.203 133.679 220.346 132.195 221.171C131.992 221.276 131.79 221.403 131.58 221.471C131.107 221.613 130.68 221.471 130.455 221.111C130.23 220.751 130.253 220.271 130.523 219.866C130.785 219.491 131.152 219.281 131.565 219.139C133.199 218.569 134.841 218.419 136.513 219.011C137.436 219.341 138.328 219.754 139.175 220.263C139.655 220.563 139.67 220.548 139.933 220.016C140.292 219.274 140.465 218.486 140.517 217.669C140.555 217.039 140.517 216.409 140.517 215.787C140.48 212.226 139.753 208.859 138.058 205.792C137.863 205.44 137.623 205.095 137.346 204.818C135.449 202.921 133.289 201.594 130.8 200.986C130.23 200.844 129.63 200.746 129.023 200.679C127.126 200.484 125.709 201.429 124.554 202.868C123.752 203.858 123.265 205.08 122.83 206.295C122.665 206.73 122.702 207.052 123.07 207.344C123.519 207.719 123.872 208.199 124.104 208.762C124.269 209.144 124.329 209.541 124.089 209.931C123.917 210.224 123.677 210.231 123.542 209.916C123.107 208.889 122.297 208.282 121.442 207.727C118.863 206.062 116.074 205.612 113.112 206.137C111.155 206.482 109.303 207.097 107.571 208.132C106.784 208.604 106.042 209.144 105.404 209.819C105.217 210.021 105.029 210.231 104.835 210.404C102.705 212.256 101.318 214.677 100.216 217.317C99.7134 218.531 99.406 219.791 99.271 221.103C99.1435 222.34 99.4959 223.473 99.9308 224.582C100.126 225.062 100.381 225.52 100.598 225.992C100.696 226.217 100.801 226.442 100.853 226.682C100.913 227.012 100.786 227.289 100.523 227.461C100.246 227.641 99.9758 227.589 99.7509 227.357C99.5859 227.192 99.451 226.982 99.3385 226.772C99.1361 226.412 98.9036 226.067 98.7912 225.67C98.6262 225.032 98.2963 224.777 97.8539 224.725C97.689 224.702 97.494 224.717 97.299 224.74C96.8492 224.8 96.3993 224.83 95.9794 225.002C93.8575 225.857 91.9605 227.027 90.8433 229.314L90.8058 229.321ZM98.4912 235.327C98.3488 234.892 98.3788 234.45 98.5812 234.037C99.1136 232.927 99.9234 232.178 101.086 232.028C101.483 231.983 101.798 231.87 102.098 231.563C102.533 231.128 103.057 230.851 103.627 230.828C104.16 230.843 104.595 230.971 104.872 231.443C104.954 231.585 105.037 231.758 104.939 231.915C104.834 232.08 104.677 232.035 104.527 231.96C104.227 231.825 103.927 231.803 103.635 231.953C103.252 232.148 102.99 232.478 102.758 232.853C102.398 233.43 102.3 233.452 101.685 233.212C100.711 232.838 99.8409 233.452 99.7434 234.585C99.7209 234.832 99.7134 235.087 99.6534 235.327C99.5859 235.612 99.3985 235.807 99.1211 235.822C98.8062 235.844 98.5962 235.634 98.4912 235.319V235.327ZM102.63 237.524C102.57 236.437 103.215 235.649 104.115 235.619C104.954 235.589 105.839 236.324 106.274 237.276C106.582 237.944 106.147 239.196 105.682 239.653C105.239 240.088 104.73 240.186 104.19 239.893C103.26 239.391 102.773 238.551 102.63 237.531V237.524ZM104.37 214.318C104.34 213.598 104.527 212.96 105.149 212.608C105.742 212.271 106.342 212.233 106.836 212.826C106.949 212.96 107.114 212.968 107.256 213.005C107.474 213.05 107.631 213.178 107.766 213.365C108.351 214.183 108.126 215.532 107.279 216.237C106.462 216.919 105.434 216.784 104.835 215.885C104.52 215.427 104.385 214.895 104.37 214.318ZM108.921 228.594C108.861 227.694 109.506 226.952 110.51 226.869C110.735 226.884 111.088 226.899 111.268 227.207C111.44 227.521 111.703 227.769 111.883 228.076C112.512 229.126 111.928 230.408 110.765 230.513C109.881 230.603 108.988 229.666 108.921 228.586V228.594ZM109.258 222.483C108.861 222.273 108.756 221.771 109.011 221.231C109.213 220.803 109.461 220.391 109.693 219.986C110.196 219.094 110.915 218.501 111.823 218.186C112.715 217.872 113.622 217.714 114.394 217.714C115.969 217.669 117.319 217.932 118.556 218.689C119.126 219.034 119.62 219.469 119.943 220.083C120.13 220.443 120.273 220.811 120.108 221.238C120.033 221.441 119.913 221.591 119.696 221.598C119.493 221.606 119.411 221.456 119.358 221.291C118.983 220.158 118.076 219.716 117.116 219.394C115.684 218.921 114.229 218.959 112.782 219.289C111.935 219.484 111.268 219.956 110.885 220.818C110.705 221.201 110.54 221.591 110.353 221.965C110.076 222.513 109.656 222.7 109.266 222.483H109.258ZM114.657 239.383C114.319 238.618 114.454 237.959 115.062 237.389C115.669 236.819 116.314 236.759 116.974 237.201C117.131 237.306 117.251 237.449 117.446 237.516C118.098 237.734 118.346 238.109 118.346 238.836C118.346 239.548 118.031 240.096 117.551 240.545C116.801 241.25 115.977 241.19 115.287 240.381C115.024 240.081 114.814 239.743 114.657 239.376V239.383ZM122.192 229.621C121.682 229.688 121.375 229.269 121.525 228.736C121.615 228.436 121.817 228.249 122.042 228.084C122.515 227.746 123.047 227.649 123.609 227.634C124.937 227.686 126.009 228.279 126.721 229.486C126.924 229.831 127.133 229.958 127.501 229.996C129.03 230.153 130.44 230.716 131.715 231.66C132.637 232.343 133.192 233.287 133.379 234.465C133.447 234.877 133.447 235.297 133.259 235.687C133.132 235.964 132.922 236.182 132.614 236.182C132.285 236.182 132.097 235.942 132 235.649C131.91 235.372 131.85 235.079 131.775 234.794C131.265 232.665 128.791 230.911 126.736 231.285C126.181 231.39 125.829 231.233 125.551 230.753C125.476 230.626 125.394 230.513 125.311 230.393C124.479 229.268 123.774 229.059 122.507 229.531C122.402 229.568 122.305 229.621 122.192 229.628V229.621ZM129.015 209.736C128.161 209.009 127.928 208.034 128.408 207.202C128.521 207 128.678 206.82 128.843 206.662C129.12 206.4 129.435 206.212 129.788 206.092C130.755 205.755 131.767 206.355 131.947 207.389C132.015 207.787 132.037 208.199 132.082 208.604C132.127 209.137 131.94 209.586 131.55 209.939C130.867 210.554 129.863 210.471 129.015 209.736ZM135.884 228.736C135.066 228.091 134.804 226.794 135.336 226.029C135.696 225.497 136.288 225.242 136.828 225.37C136.971 225.4 137.121 225.46 137.166 225.602C137.218 225.767 137.098 225.864 136.978 225.962C136.776 226.119 136.558 226.277 136.371 226.457C135.951 226.869 135.951 227.409 136.341 227.881C136.663 228.271 137.068 228.271 137.563 227.881C137.796 227.701 137.961 227.454 138.095 227.184C138.178 227.012 138.185 226.772 138.425 226.712C138.68 227.499 138.628 227.919 138.208 228.421C137.586 229.171 136.603 229.299 135.884 228.736ZM141.71 231.953C141.215 230.731 142.414 229.261 143.487 229.186C143.921 229.156 144.296 229.313 144.589 229.651C144.724 229.808 144.844 229.951 145.054 230.041C145.901 230.423 146.246 231.338 145.998 232.403C145.796 233.302 145.031 233.917 144.146 233.902C143.194 233.895 142.129 232.988 141.71 231.945V231.953Z" fill="#CECECE"/>
<path d="M104.025 237.141C103.995 237.486 104.25 237.711 104.115 238.071C103.987 238.408 104.34 238.633 104.58 238.836C104.782 239.008 104.969 238.941 105.119 238.761C105.322 238.521 105.502 238.251 105.479 237.884C105.479 237.816 105.412 237.719 105.352 237.689C104.947 237.464 104.58 237.134 104.032 237.141H104.025Z" fill="#8F8F8F"/>
<path d="M106.417 213.268C105.847 213.283 105.464 213.725 105.487 214.37C105.502 215.037 105.847 215.532 106.267 215.495C106.799 215.465 107.219 214.79 107.196 214.04C107.174 213.493 106.942 213.253 106.417 213.26V213.268Z" fill="#8F8F8F"/>
<path d="M110.638 227.904C109.978 228.136 109.783 228.399 109.903 228.871C110.023 229.328 110.375 229.628 110.75 229.576C111.193 229.516 111.433 229.134 111.425 228.526C111.403 227.769 111.298 227.686 110.638 227.911V227.904Z" fill="#DEDEDE"/>
<path d="M115.857 238.371C115.519 238.499 115.407 238.739 115.549 239.098C115.722 239.526 115.932 239.976 116.389 240.073C116.869 240.171 117.169 239.781 117.424 239.428C117.746 238.978 117.934 238.491 117.484 237.801C117.319 238.476 116.959 238.574 116.479 238.401C116.277 238.326 116.067 238.296 115.849 238.379L115.857 238.371Z" fill="#8F8F8F"/>
<path d="M129.78 207.292C128.895 207.659 128.708 208.289 129.278 209.076C129.93 209.976 130.942 209.991 131.407 209.106C131.505 208.919 131.572 208.724 131.557 208.544C131.557 208.297 131.527 208.124 131.325 207.997C131.122 207.854 130.95 207.659 130.77 207.479C130.485 207.172 130.163 207.142 129.78 207.299V207.292Z" fill="#DEDEDE"/>
<path d="M142.812 230.768C142.459 231.21 142.519 231.788 143.022 232.298C143.397 232.673 143.801 233.062 144.409 232.845C144.941 232.665 145.256 232.155 145.263 231.503C145.263 231.225 145.218 230.963 145.114 230.708C145.024 230.461 144.904 230.446 144.754 230.648C144.589 230.888 144.454 230.806 144.244 230.663C143.591 230.228 143.187 230.266 142.804 230.761L142.812 230.768Z" fill="#DEDEDE"/>
<path d="M137.076 228.909C139.49 228.909 139.49 225.16 137.076 225.16C134.662 225.16 134.662 228.909 137.076 228.909Z" fill="#8F8F8F"/>
<path d="M156.66 244.212C156.66 244.212 156.75 237.629 152.544 237.464C148.398 237.299 147.175 241.985 147.258 244.032C147.348 246.079 146.471 240.995 143.441 241.625C140.442 242.255 139.677 245.824 139.677 245.824C139.677 245.824 138.995 246.769 137.391 246.446C135.793 246.131 134.451 245.217 133.866 245.809C133.282 246.401 130.305 246.206 129.975 247.661C129.645 249.116 122.267 248.058 120.827 249.108C119.395 250.15 113.899 243.635 111.118 244.137C108.358 244.632 108.591 246.049 108.591 246.049C108.591 246.049 107.983 243.619 104.954 243.117C101.963 242.615 101.738 239.578 101.738 239.578C101.738 239.578 98.0412 243.072 96.1442 242.532L95.7093 245.599L98.5586 249.288L104.504 250.48L108.021 248.141L111.275 251.35L120.355 252.857L126.383 251.852L130.147 249.948L132.007 251.102L135.171 251.8L139.475 250.105C139.475 250.105 142.122 251.53 142.294 251.537C142.467 251.545 150.917 250.788 150.917 250.788L156.225 247.533L156.675 244.212H156.66Z" fill="#ABABAB"/>
<path d="M95.0867 242.937C93.992 242.525 92.9423 241.97 92.0725 241.13C89.5907 238.731 88.0161 235.897 88.511 232.058C89.0809 227.664 91.8701 224.74 95.7165 223.795C96.4513 223.615 97.1937 223.668 97.936 223.788C98.0109 223.525 97.921 223.353 97.8835 223.173C97.741 222.49 97.6585 221.808 97.7185 221.103C97.8535 219.386 98.2359 217.759 99.0532 216.26C99.3306 215.757 99.548 215.217 99.8105 214.7C101.58 211.198 104.107 208.499 107.361 206.572C109.438 205.342 111.702 204.81 114.049 204.593C116.553 204.36 118.96 204.743 121.195 206.025C121.33 206.107 121.465 206.212 121.697 206.197C122.012 204.938 122.574 203.76 123.257 202.636C124.216 201.031 125.663 200.169 127.305 199.607C127.59 199.509 127.92 199.509 128.22 199.539C130.522 199.726 132.719 200.274 134.811 201.376C137.683 202.891 139.76 205.118 140.907 208.304C141.327 209.474 141.672 210.674 142.024 211.881C142.721 214.265 142.556 216.687 142.256 219.124C142.196 219.626 141.927 220.091 141.897 220.653C142.354 220.653 142.796 220.653 143.231 220.638C144.423 220.601 145.593 220.706 146.71 221.163C147.97 221.681 151.479 224.59 152.229 225.752C152.724 226.524 153.196 227.304 153.676 228.091C154.073 228.751 154.411 229.463 154.463 230.236C154.591 232.23 154.733 234.232 153.878 236.122C153.593 236.751 153.638 236.774 154.246 237.194C155.813 238.281 156.847 239.758 157.252 241.625C157.522 242.87 157.575 244.144 157.612 245.412C157.642 246.334 157.38 247.181 156.803 247.893C155.978 248.921 155.01 249.775 153.751 250.225C152.896 250.525 152.086 250.9 151.277 251.29C150.354 251.732 149.379 251.98 148.345 252.017C146.8 252.077 145.263 252.152 143.734 252.28C142.241 252.407 140.794 252.04 139.52 251.178C139.085 250.878 138.83 250.9 138.462 251.17C137.953 251.545 137.443 251.92 136.843 252.13C134.601 252.932 132.524 252.587 130.672 250.93C130.29 250.593 130.057 250.54 129.675 250.84C128.94 251.41 128.108 251.807 127.238 252.092C123.302 253.352 119.358 253.989 115.279 253.18C113.622 252.85 112.077 252.272 110.675 251.23C109.813 250.593 109.01 249.91 108.381 249.018C106.746 250.33 106.101 250.69 104.699 250.855C102.33 251.133 100.073 250.645 97.9809 249.356C96.9387 248.718 96.1064 247.804 95.5216 246.649C95.0042 245.637 95.0192 244.632 95.5666 243.665C95.6341 243.552 95.7016 243.447 95.814 243.245C95.5141 243.117 95.3117 243.02 95.1017 242.945L95.0867 242.937ZM138.035 205.807C137.84 205.455 137.6 205.11 137.323 204.825C134.983 202.486 132.254 201.024 129 200.686C127.103 200.491 125.686 201.436 124.531 202.868C123.729 203.858 123.242 205.08 122.799 206.295C122.642 206.737 122.672 207.052 123.039 207.352C123.489 207.719 123.841 208.207 124.074 208.769C124.239 209.151 124.291 209.549 124.059 209.939C123.886 210.231 123.646 210.239 123.512 209.924C123.069 208.897 122.267 208.289 121.412 207.734C118.825 206.062 116.044 205.62 113.082 206.145C111.125 206.49 109.273 207.105 107.541 208.139C106.754 208.612 106.019 209.152 105.374 209.826C105.186 210.021 105.007 210.231 104.804 210.411C102.675 212.263 101.288 214.685 100.193 217.332C99.6905 218.546 99.3831 219.806 99.2481 221.118C99.1281 222.355 99.4656 223.488 99.9079 224.597C100.103 225.077 100.358 225.535 100.575 226.007C100.68 226.232 100.785 226.464 100.83 226.704C100.89 227.034 100.763 227.312 100.5 227.484C100.223 227.664 99.9529 227.604 99.7354 227.371C99.5705 227.199 99.4355 226.989 99.3231 226.779C99.1281 226.427 98.8882 226.074 98.7832 225.684C98.5433 224.8 98.0034 224.65 97.2836 224.747C96.8338 224.807 96.3839 224.845 95.964 225.01C93.8421 225.857 91.9451 227.034 90.8279 229.321C89.5533 231.908 89.2608 234.457 90.7829 237.156C92.215 239.691 94.217 241.168 96.8113 241.783C97.4111 241.925 97.636 242.465 97.3061 243.027C97.1187 243.35 96.8938 243.642 96.6763 243.935C96.129 244.684 96.0914 245.307 96.5938 246.131C97.0737 246.919 97.696 247.549 98.4308 248.013C100.41 249.273 102.54 249.685 104.774 249.333C105.801 249.168 106.649 248.651 107.323 247.789C107.503 247.556 107.691 247.316 107.916 247.136C108.343 246.799 108.801 246.911 109.01 247.451C109.378 248.411 110.083 249.003 110.817 249.595C112.602 251.05 114.656 251.567 116.816 251.852C119.028 252.152 121.172 251.755 123.347 251.388C125.401 251.035 127.41 250.458 129.442 249.88C129.577 249.843 129.757 249.835 129.832 249.738C130.38 249.026 130.972 249.453 131.482 249.775C133.281 250.915 135.088 251.065 136.925 250.098C137.72 249.678 138.522 249.356 139.437 249.288C139.767 249.266 140.067 249.288 140.352 249.498C141.207 250.143 142.181 250.405 143.194 250.323C144.978 250.173 146.785 250.128 148.6 250.015C149.02 249.985 149.432 249.903 149.814 249.753C150.999 249.281 152.191 248.786 153.398 248.336C154.261 248.013 154.883 247.324 155.445 246.604C155.715 246.259 155.805 245.847 155.805 245.397C155.805 244.227 155.76 243.042 155.573 241.895C155.34 240.478 154.568 239.331 153.443 238.409C152.844 237.914 152.161 238.154 151.531 238.086C151.014 238.034 150.504 238.386 150.114 238.791C149.949 238.963 149.799 239.158 149.642 239.331C149.514 239.466 149.365 239.586 149.17 239.496C148.99 239.413 148.922 239.248 148.907 239.046C148.855 237.989 149.207 237.449 150.204 237.066C150.429 236.984 150.647 236.879 150.879 236.812C151.254 236.707 151.516 236.504 151.636 236.114C151.696 235.912 151.801 235.717 151.921 235.544C153.009 233.97 153.038 232.17 152.934 230.348C152.926 230.198 152.919 230.033 152.859 229.898C152.101 228.166 151.479 226.359 150.047 225.04C149.402 224.447 148.735 223.877 148.09 223.293C147.355 222.633 146.515 222.243 145.563 222.04C144.393 221.793 143.239 221.673 142.054 221.891C141.672 221.958 141.349 222.063 141.057 222.37C140.547 222.91 139.782 222.82 139.437 222.175C139.22 221.771 138.912 221.576 138.545 221.388C137.998 221.111 137.435 220.908 136.858 220.721C135.246 220.196 133.701 220.346 132.209 221.163C132.007 221.276 131.812 221.396 131.594 221.463C131.122 221.613 130.695 221.463 130.462 221.103C130.237 220.743 130.26 220.264 130.53 219.859C130.785 219.476 131.159 219.274 131.572 219.131C133.206 218.554 134.848 218.411 136.52 219.004C137.45 219.334 138.335 219.739 139.182 220.256C139.662 220.548 139.67 220.541 139.94 220.001C140.299 219.266 140.479 218.471 140.524 217.654C140.562 217.024 140.524 216.394 140.524 215.765C140.487 212.211 139.76 208.837 138.065 205.777L138.035 205.807Z" fill="#0D0D0D"/>
<path d="M123.609 227.634C123.047 227.656 122.507 227.746 122.042 228.091C121.817 228.256 121.607 228.451 121.525 228.743C121.375 229.276 121.682 229.688 122.2 229.628C122.305 229.613 122.41 229.568 122.515 229.531C123.782 229.058 124.487 229.268 125.319 230.393C125.401 230.505 125.484 230.625 125.559 230.753C125.844 231.225 126.189 231.383 126.751 231.278C128.798 230.91 131.272 232.65 131.782 234.787C131.85 235.072 131.91 235.364 132.007 235.642C132.105 235.934 132.292 236.181 132.622 236.174C132.929 236.174 133.132 235.964 133.267 235.679C133.447 235.289 133.447 234.877 133.387 234.464C133.207 233.295 132.644 232.35 131.722 231.66C130.455 230.715 129.045 230.146 127.508 229.996C127.141 229.958 126.923 229.838 126.721 229.493C126.009 228.286 124.944 227.694 123.617 227.641L123.609 227.634Z" fill="#0D0D0D"/>
<path d="M114.394 217.707C113.622 217.707 112.715 217.864 111.822 218.179C110.908 218.501 110.188 219.094 109.685 219.978C109.453 220.391 109.213 220.803 109.011 221.231C108.756 221.77 108.868 222.273 109.258 222.483C109.655 222.7 110.068 222.505 110.345 221.965C110.533 221.59 110.705 221.208 110.878 220.826C111.268 219.963 111.935 219.491 112.775 219.296C114.222 218.966 115.676 218.929 117.108 219.409C118.068 219.731 118.968 220.166 119.35 221.298C119.41 221.47 119.493 221.62 119.688 221.605C119.905 221.59 120.025 221.441 120.1 221.246C120.265 220.826 120.123 220.451 119.935 220.091C119.613 219.476 119.11 219.034 118.548 218.689C117.311 217.931 115.961 217.661 114.387 217.714L114.394 217.707Z" fill="#0D0D0D"/>
<path d="M104.115 235.619C104.954 235.589 105.839 236.331 106.274 237.276C106.581 237.943 106.147 239.188 105.682 239.653C105.239 240.088 104.729 240.185 104.197 239.893C103.267 239.391 102.772 238.551 102.637 237.524C102.577 236.436 103.222 235.649 104.122 235.619H104.115ZM104.115 238.071C103.987 238.408 104.339 238.641 104.579 238.843C104.782 239.016 104.969 238.948 105.119 238.768C105.329 238.521 105.502 238.251 105.479 237.891C105.479 237.823 105.412 237.726 105.352 237.696C104.947 237.479 104.579 237.141 104.032 237.141C104.01 237.486 104.257 237.711 104.122 238.071H104.115Z" fill="#0D0D0D"/>
<path d="M103.62 230.828C103.057 230.85 102.525 231.12 102.09 231.563C101.79 231.87 101.483 231.975 101.086 232.028C99.9233 232.178 99.1135 232.92 98.5737 234.037C98.3787 234.442 98.3487 234.892 98.4912 235.327C98.5887 235.642 98.7986 235.852 99.1136 235.829C99.391 235.814 99.5784 235.619 99.6459 235.327C99.7059 235.087 99.7134 234.832 99.7359 234.584C99.8408 233.452 100.703 232.837 101.678 233.212C102.293 233.452 102.39 233.43 102.75 232.852C102.982 232.478 103.245 232.14 103.627 231.953C103.92 231.803 104.22 231.825 104.52 231.96C104.67 232.028 104.827 232.08 104.932 231.908C105.029 231.75 104.947 231.578 104.864 231.435C104.58 230.955 104.145 230.835 103.62 230.813V230.828Z" fill="#0D0D0D"/>
<path d="M105.149 212.608C105.741 212.271 106.341 212.226 106.836 212.826C106.949 212.96 107.106 212.968 107.256 213.005C107.466 213.058 107.631 213.178 107.758 213.365C108.343 214.19 108.118 215.532 107.278 216.237C106.454 216.927 105.434 216.784 104.834 215.892C104.519 215.435 104.377 214.902 104.369 214.325C104.347 213.605 104.527 212.968 105.149 212.616V212.608ZM106.274 215.502C106.799 215.465 107.226 214.797 107.196 214.048C107.174 213.493 106.941 213.26 106.416 213.268C105.846 213.283 105.464 213.725 105.487 214.363C105.502 215.03 105.846 215.525 106.274 215.495V215.502Z" fill="#0D0D0D"/>
<path d="M141.702 231.953C141.207 230.723 142.406 229.261 143.479 229.186C143.914 229.156 144.288 229.314 144.581 229.651C144.716 229.809 144.836 229.944 145.046 230.041C145.893 230.423 146.238 231.338 145.99 232.403C145.781 233.303 145.023 233.917 144.138 233.902C143.186 233.887 142.114 232.98 141.702 231.946V231.953ZM145.121 230.716C145.023 230.468 144.903 230.453 144.761 230.663C144.596 230.903 144.461 230.813 144.251 230.678C143.599 230.236 143.194 230.281 142.811 230.768C142.459 231.218 142.519 231.788 143.021 232.298C143.396 232.68 143.809 233.055 144.408 232.845C144.933 232.665 145.256 232.155 145.271 231.503C145.271 231.226 145.218 230.963 145.121 230.708V230.716Z" fill="#0D0D0D"/>
<path d="M117.551 240.546C116.794 241.25 115.976 241.19 115.286 240.381C115.032 240.081 114.822 239.743 114.657 239.376C114.312 238.611 114.454 237.951 115.061 237.381C115.669 236.812 116.314 236.744 116.974 237.186C117.131 237.291 117.251 237.434 117.446 237.501C118.106 237.719 118.346 238.101 118.346 238.828C118.338 239.541 118.031 240.096 117.551 240.538V240.546ZM116.486 238.394C116.284 238.319 116.066 238.296 115.856 238.371C115.519 238.499 115.406 238.738 115.549 239.098C115.721 239.526 115.931 239.976 116.389 240.073C116.869 240.171 117.168 239.781 117.423 239.421C117.746 238.971 117.933 238.484 117.483 237.794C117.311 238.469 116.958 238.559 116.479 238.394H116.486Z" fill="#0D0D0D"/>
<path d="M131.55 209.939C130.867 210.546 129.87 210.464 129.015 209.737C128.16 209.009 127.92 208.034 128.408 207.202C128.52 207 128.678 206.82 128.843 206.662C129.12 206.4 129.435 206.212 129.787 206.092C130.755 205.763 131.767 206.355 131.947 207.39C132.014 207.787 132.037 208.199 132.074 208.604C132.119 209.137 131.932 209.586 131.542 209.939H131.55ZM131.332 207.982C131.122 207.839 130.95 207.652 130.777 207.465C130.485 207.157 130.17 207.127 129.78 207.285C128.895 207.652 128.708 208.289 129.278 209.069C129.93 209.969 130.942 209.984 131.414 209.092C131.512 208.904 131.572 208.709 131.564 208.529C131.564 208.282 131.534 208.109 131.34 207.974L131.332 207.982Z" fill="#0D0D0D"/>
<path d="M111.268 227.207C111.448 227.529 111.703 227.769 111.883 228.076C112.52 229.134 111.928 230.408 110.765 230.521C109.881 230.603 108.988 229.673 108.913 228.594C108.853 227.694 109.498 226.952 110.51 226.869C110.735 226.884 111.088 226.892 111.26 227.207H111.268ZM110.638 227.911C109.978 228.144 109.776 228.399 109.903 228.871C110.023 229.328 110.383 229.628 110.758 229.576C111.2 229.516 111.44 229.133 111.425 228.519C111.41 227.761 111.298 227.679 110.638 227.904V227.911Z" fill="#0D0D0D"/>
<path d="M138.418 226.704C138.178 226.764 138.17 227.004 138.088 227.177C137.96 227.446 137.795 227.686 137.563 227.874C137.068 228.271 136.663 228.271 136.341 227.874C135.951 227.394 135.951 226.862 136.371 226.449C136.558 226.262 136.768 226.112 136.978 225.947C137.098 225.857 137.226 225.752 137.166 225.587C137.113 225.437 136.971 225.385 136.821 225.355C136.281 225.227 135.688 225.49 135.329 226.014C134.804 226.779 135.066 228.076 135.883 228.721C136.603 229.284 137.585 229.156 138.2 228.406C138.62 227.896 138.673 227.484 138.418 226.697V226.704Z" fill="#0D0D0D"/>
</svg>
