<svg width="24" height="24" viewBox="0 0 24 24" fill="none" xmlns="http://www.w3.org/2000/svg">
<path fill-rule="evenodd" clip-rule="evenodd" d="M8.82529 10.6868C9.50196 10.8596 9.99754 11.3526 10.2543 12.1093C10.3943 12.5222 10.3943 13.1018 10.2543 13.5151C10.0111 14.2303 9.58069 14.6983 8.95782 14.924C8.49723 15.0911 8.0677 15.0596 7.5813 14.8234C6.22708 14.1668 5.98344 12.1508 7.13295 11.112C7.60623 10.6842 8.2151 10.5311 8.82529 10.6868ZM16.12 10.6846C16.4375 10.766 16.5998 10.8487 16.8688 11.0674C17.5507 11.6211 17.8049 12.6263 17.573 13.4635C17.4287 13.9844 17.0459 14.5089 16.6348 14.7499C16.1571 15.0298 15.5745 15.123 15.0514 14.9091C14.1971 14.5601 13.7063 13.7264 13.7059 12.8284C13.7059 12.349 13.7575 12.1294 13.9723 11.6964C14.1341 11.3705 14.5348 10.9685 14.8462 10.8198C15.2631 10.6212 15.6926 10.5757 16.12 10.6846Z" fill="white"/>
<path fill-rule="evenodd" clip-rule="evenodd" d="M8.54773 3.7578C7.07629 4.06529 5.60834 4.52326 4.61849 4.98429C4.55419 5.01403 4.50651 5.03503 4.46364 5.06259C4.32367 5.15138 4.23007 5.31191 3.76073 6.08044C3.13086 7.11228 2.46162 8.49581 2.12919 9.45286C2.07845 9.60026 2.00584 9.80147 1.96779 9.90033C1.86281 10.175 1.51901 11.4369 1.4289 11.8796C1.35979 12.2186 1.29068 12.6503 1.14852 13.6275C1.07285 14.1463 1.04136 15.0447 1.06367 16.0468C1.09122 17.2952 1.10872 17.4981 1.19751 17.5659C1.3353 17.6709 2.03078 18.1376 2.33915 18.3314C3.54902 19.0925 4.84856 19.6965 6.362 20.2017C6.51947 20.2542 6.66162 20.2971 6.67781 20.2971C6.77448 20.2971 7.54213 19.1502 7.58018 19.0933L7.58368 19.0881L8.39901 17.8524C8.66496 17.9268 8.92828 17.9959 9.16973 18.0545C10.6836 18.4215 12.6677 18.4657 14.3434 18.17C14.8037 18.0835 15.2602 17.9775 15.7116 17.8524L16.6345 19.0912L17.5728 20.2971C17.5728 20.2971 17.5728 20.3295 17.9363 20.2017C18.6952 19.8746 21.0882 18.7277 21.6289 18.3852C21.9884 18.1573 22.7408 17.6508 22.8313 17.576C22.9175 17.5042 22.9219 17.4854 22.9599 16.9951C23.0356 16.0206 23.0002 14.2919 22.8891 13.5619C22.8557 13.3386 22.8229 13.1152 22.7906 12.8918C22.7469 12.5967 22.6979 12.3024 22.6437 12.0091C22.5588 11.5612 22.1866 10.1733 22.0693 9.86752C22.0313 9.76867 21.9591 9.57008 21.9093 9.42574C21.5007 8.25261 20.7064 6.69193 19.8604 5.39939C19.7839 5.2826 19.7362 5.20693 19.675 5.14569C19.5556 5.02672 19.3837 4.96023 18.8456 4.74328C17.8755 4.35223 16.8791 4.05523 15.653 3.79104C15.482 3.7543 15.2899 3.71624 15.2274 3.70618C15.1941 3.70098 15.1599 3.70648 15.1299 3.72188C15.0999 3.73728 15.0755 3.7618 15.0603 3.79191L14.9094 4.08891C14.8099 4.28362 14.7146 4.48051 14.6238 4.67942L14.5975 4.73978C14.5813 4.77702 14.5534 4.80797 14.5181 4.82794C14.4827 4.84791 14.4418 4.85581 14.4016 4.85044C12.9695 4.65886 11.2579 4.64661 9.9107 4.81851C9.69724 4.84607 9.51965 4.864 9.51703 4.85832C9.51353 4.85307 9.38056 4.58756 9.2209 4.26825C9.06125 3.94894 8.91472 3.68912 8.8946 3.69043C8.87491 3.69175 8.71876 3.72193 8.54773 3.7578ZM10.2545 12.1071C9.9973 11.3503 9.50216 10.8578 8.82548 10.6846C8.21574 10.5289 7.60643 10.682 7.13271 11.1098C5.98364 12.149 6.22728 14.1646 7.58193 14.8216C8.06833 15.0578 8.49743 15.0889 8.95802 14.9222C9.58089 14.6961 10.0117 14.2281 10.2545 13.5129C10.3945 13.0995 10.3945 12.52 10.2545 12.1071ZM16.8686 11.0651C16.5996 10.8464 16.4373 10.7638 16.1197 10.6829C15.6924 10.5735 15.2628 10.6194 14.8464 10.818C14.5345 10.9667 14.1334 11.3683 13.9716 11.6941C13.7573 12.1272 13.7057 12.3468 13.7061 12.8262C13.7061 13.7246 14.1973 14.5583 15.0511 14.9073C15.5743 15.1212 16.1569 15.0276 16.6345 14.7481C17.0457 14.5076 17.4284 13.9827 17.5728 13.4617C17.8046 12.6241 17.5509 11.6189 16.8686 11.0651Z" fill="#FFC70F"/>
<path d="M7.83675 17.6874C8.10269 17.7617 8.92939 17.9975 9.17084 18.0556C10.6843 18.4231 12.6684 18.4668 14.3441 18.1711C14.8045 18.0848 15.2609 17.9788 15.7123 17.8536L16.6352 19.0923L17.5735 20.2987C17.5735 20.2987 17.5735 20.3306 17.937 20.2029C18.6959 19.8757 21.0894 18.7288 21.6296 18.3868C21.9895 18.1584 22.7415 17.6519 22.8324 17.5776C22.9186 17.5054 22.9225 17.4866 22.9606 16.9962C23.0367 16.0217 23.0008 14.2931 22.8897 13.5635C22.8722 13.4462 22.8276 13.1449 22.7913 12.8929C22.7476 12.5978 22.6986 12.3035 22.6443 12.0102C22.5595 11.5628 22.1873 10.1744 22.07 9.86867C22.032 9.76981 21.9602 9.57123 21.9099 9.42732C21.5513 8.39504 20.893 7.06313 20.1638 5.87731C19.8882 5.43028 19.8782 5.3323 19.7806 5.87731C19.3183 8.46371 18.5113 10.4732 17.5262 12.036C17.6828 12.4965 17.6992 12.993 17.5735 13.4629C17.4291 13.9838 17.0468 14.5083 16.6352 14.7493C16.1576 15.0288 15.5754 15.1224 15.0518 14.9085L15.0286 14.8989C12.4558 17.0221 9.07461 17.2714 7.83675 17.4074C7.2445 17.4721 6.90375 17.4669 7.83675 17.6874Z" fill="#F59F00"/>
<path d="M7.58176 19.0927C7.58176 19.0927 6.77693 20.299 6.67764 20.299C6.66145 20.299 6.51929 20.2557 6.36183 20.2033C4.84839 19.6985 3.54929 19.0944 2.33854 18.3329C2.0306 18.1396 1.33512 17.6728 1.1969 17.5674C1.10855 17.5001 1.09105 17.2971 1.06349 16.0487C1.04162 15.0462 1.07268 14.1478 1.14835 13.629C1.29051 12.6518 1.35962 12.2205 1.42873 11.8816C1.51884 11.4389 1.86264 10.177 1.96762 9.90184C2.00567 9.80299 2.07828 9.60178 2.12946 9.45481C2.46189 8.49776 3.13113 7.1138 3.76099 6.08239C4.37512 5.07547 4.34625 5.11265 4.61831 4.98581C5.60817 4.52521 7.07611 4.06725 8.54756 3.75975C8.71815 3.72388 8.87474 3.6937 8.89442 3.69239C8.91411 3.69108 9.06108 3.9509 9.22073 4.27021L9.51642 4.86027C9.51948 4.86552 9.69707 4.84758 9.91052 4.82047C11.2577 4.64856 12.9693 4.66081 14.4014 4.8524C14.4417 4.85776 14.4826 4.84986 14.5179 4.82989C14.5533 4.80992 14.5812 4.77897 14.5974 4.74173L14.6236 4.68093C14.6691 4.57639 14.7977 4.31088 14.9092 4.09043L15.0601 3.79387C15.0754 3.76375 15.0997 3.73924 15.1297 3.72383C15.1598 3.70843 15.1939 3.70294 15.2272 3.70814C15.2902 3.7182 15.4818 3.75625 15.6528 3.79299C16.8789 4.05675 17.8749 4.35375 18.8455 4.74523C19.6599 5.07329 19.635 5.05754 19.8603 5.40134C20.7066 6.69345 21.5005 8.25456 21.9091 9.42769C21.9589 9.57204 22.0311 9.77018 22.0687 9.86948C22.1864 10.1752 22.5586 11.5631 22.6435 12.0106C22.6877 12.2446 22.7537 12.6418 22.7905 12.8937C22.8268 13.1452 22.8709 13.447 22.8889 13.5638C23 14.2934 23.0354 16.0221 22.9597 16.9966C22.9217 17.4869 22.9173 17.5058 22.8311 17.5775C22.7406 17.6527 21.9883 18.1592 21.6283 18.3867C21.0885 18.7296 18.695 19.8761 17.9361 20.2033C17.8524 20.2411 17.7662 20.2731 17.678 20.299C17.6085 20.3174 17.5477 20.2671 17.5035 20.2103L16.6344 19.0927M6.54248 17.2219C6.99826 17.4533 8.2475 17.8325 9.16955 18.056C10.6834 18.4234 12.6675 18.4672 14.3432 18.1715C15.253 18.011 16.8754 17.5582 17.5726 17.2219M8.82487 10.6866C9.50198 10.8593 9.99713 11.3523 10.2539 12.109C10.3939 12.5219 10.3939 13.1015 10.2539 13.5148C10.0111 14.23 9.58028 14.698 8.95741 14.9233C8.49682 15.0908 8.06772 15.0593 7.58132 14.8236C6.22667 14.1666 5.98303 12.151 7.13254 11.1117C7.60582 10.6839 8.21469 10.5308 8.82487 10.6866ZM16.1191 10.6844C16.4367 10.7657 16.5989 10.8484 16.8679 11.0671C17.5503 11.6209 17.804 12.626 17.5722 13.4632C17.4278 13.9842 17.0451 14.5086 16.6339 14.7496C16.1563 15.0296 15.5737 15.1228 15.0505 14.9089C14.1967 14.5598 13.7055 13.7261 13.7055 12.8281C13.705 12.3487 13.7567 12.1291 13.9714 11.6961C14.1333 11.3702 14.5339 10.9682 14.8458 10.8195C15.2622 10.6209 15.6918 10.5755 16.1191 10.6844Z" stroke="black" stroke-width="0.874818" stroke-linecap="round"/>
</svg>
