<svg width="25" height="24" viewBox="0 0 25 24" fill="none" xmlns="http://www.w3.org/2000/svg">
<g id="etherscan-logo-circle 1" clip-path="url(#clip0_2353_4740)">
<path id="Vector" d="M5.93228 11.398C5.9323 11.2655 5.95851 11.1343 6.00938 11.0119C6.06025 10.8895 6.13478 10.7784 6.22871 10.685C6.32267 10.5915 6.43412 10.5175 6.55673 10.4672C6.67935 10.4169 6.81069 10.3913 6.94321 10.392L8.61931 10.3974C8.88653 10.3974 9.14282 10.5036 9.33178 10.6926C9.52075 10.8815 9.62692 11.1378 9.62692 11.405V17.7426C9.8156 17.6866 10.0579 17.6269 10.3231 17.5645C10.5073 17.5212 10.6715 17.417 10.789 17.2687C10.9065 17.1203 10.9704 16.9367 10.9703 16.7475V8.88602C10.9703 8.61876 11.0765 8.36245 11.2654 8.17345C11.4544 7.98446 11.7107 7.87827 11.9779 7.87821H13.6574C13.9246 7.87827 14.1809 7.98446 14.3698 8.17345C14.5588 8.36245 14.665 8.61876 14.665 8.88602V16.1822C14.665 16.1822 15.0855 16.0121 15.495 15.8392C15.6472 15.7749 15.777 15.6671 15.8683 15.5295C15.9597 15.3918 16.0084 15.2303 16.0086 15.0651V6.36699C16.0086 6.09979 16.1147 5.84352 16.3036 5.65456C16.4925 5.46561 16.7488 5.35944 17.016 5.35938H18.6954C18.9626 5.35938 19.2189 5.46553 19.4079 5.65451C19.5969 5.84346 19.703 6.09975 19.703 6.36699V13.5297C21.159 12.4745 22.6345 11.2054 23.8055 9.67938C23.9754 9.45788 24.0878 9.19776 24.1327 8.92227C24.1776 8.64678 24.1536 8.36444 24.0628 8.10046C23.5208 6.541 22.6593 5.11185 21.5333 3.90448C20.4072 2.69712 19.0415 1.73811 17.5236 1.08883C16.0057 0.439559 14.3689 0.114318 12.7181 0.133924C11.0672 0.153529 9.43865 0.51755 7.93658 1.20269C6.43449 1.88783 5.09197 2.87899 3.99494 4.11277C2.8979 5.34653 2.07051 6.79574 1.56571 8.36764C1.06091 9.93952 0.889816 11.5995 1.06338 13.2413C1.23694 14.8831 1.75133 16.4706 2.57364 17.9022C2.71689 18.1492 2.92764 18.3501 3.18112 18.4815C3.43461 18.6128 3.7203 18.6691 4.00467 18.6437C4.32233 18.6158 4.71785 18.5762 5.18809 18.5209C5.39279 18.4977 5.58179 18.4 5.71906 18.2463C5.85634 18.0927 5.9323 17.894 5.93248 17.688L5.93228 11.398Z" fill="#21325B"/>
<path id="Vector_2" d="M5.89561 21.5629C7.66582 22.8507 9.75782 23.6238 11.9401 23.7965C14.1224 23.969 16.31 23.5346 18.2607 22.5411C20.2114 21.5475 21.8492 20.0337 22.993 18.1672C24.1366 16.3006 24.7416 14.1539 24.7411 11.9648C24.7411 11.6916 24.7284 11.4214 24.7102 11.1527C20.3748 17.6187 12.37 20.6415 5.89599 21.5619" fill="#979695"/>
</g>
<defs>
<clipPath id="clip0_2353_4740">
<rect width="24" height="24" fill="white" transform="translate(0.900085)"/>
</clipPath>
</defs>
</svg>
