<svg width="56" height="56" viewBox="0 0 56 56" fill="none" xmlns="http://www.w3.org/2000/svg">
<path d="M20.9999 29.1668L15.1666 35.0002L20.9999 40.8335L26.8333 35.0002L20.9999 29.1668ZM34.9999 5.8335C31.1722 5.83356 27.4861 7.28093 24.6809 9.88527C21.8758 12.4896 20.1591 16.0583 19.8753 19.8755C16.9794 20.0908 14.2061 21.1329 11.8851 22.878C9.56409 24.6232 7.79285 26.9979 6.78185 29.7202C5.77086 32.4424 5.56262 35.3976 6.18188 38.2347C6.80114 41.0718 8.22186 43.6715 10.2752 45.7249C12.3286 47.7782 14.9283 49.199 17.7654 49.8182C20.6025 50.4375 23.5577 50.2292 26.28 49.2183C29.0022 48.2073 31.3769 46.436 33.1221 44.115C34.8672 41.794 35.9093 39.0207 36.1246 36.1248C40.0382 35.833 43.6863 34.0355 46.3023 31.1101C48.9183 28.1847 50.2985 24.3592 50.1529 20.4374C50.0073 16.5157 48.3472 12.803 45.5215 10.0797C42.6957 7.35636 38.9244 5.83434 34.9999 5.8335ZM35.7536 31.4745C35.0999 28.7494 33.7052 26.2582 31.7235 24.2766C29.7419 22.295 27.2507 20.9002 24.5256 20.2465C24.6703 18.2393 25.3888 16.316 26.5955 14.7056C27.8022 13.0951 29.4462 11.8653 31.3319 11.1626C33.2176 10.4599 35.2655 10.3139 37.2319 10.742C39.1982 11.17 41.0001 12.1541 42.423 13.5771C43.846 15 44.8301 16.8019 45.2581 18.7683C45.6862 20.7346 45.5402 22.7825 44.8375 24.6682C44.1348 26.5539 42.905 28.1979 41.2945 29.4046C39.6841 30.6113 37.7608 31.3298 35.7536 31.4745ZM31.4999 35.0002C31.4999 37.7849 30.3937 40.4557 28.4246 42.4248C26.4554 44.3939 23.7847 45.5002 20.9999 45.5002C18.2152 45.5002 15.5445 44.3939 13.5753 42.4248C11.6062 40.4557 10.4999 37.7849 10.4999 35.0002C10.4999 32.2154 11.6062 29.5447 13.5753 27.5755C15.5445 25.6064 18.2152 24.5002 20.9999 24.5002C23.7847 24.5002 26.4554 25.6064 28.4246 27.5755C30.3937 29.5447 31.4999 32.2154 31.4999 35.0002ZM6.99994 16.3335C6.99994 13.8581 7.98327 11.4842 9.73361 9.73383C11.4839 7.98349 13.8579 7.00016 16.3333 7.00016H19.8333V11.6668H16.3333C15.0956 11.6668 13.9086 12.1585 13.0334 13.0337C12.1583 13.9088 11.6666 15.0958 11.6666 16.3335V19.8335H6.99994V16.3335ZM44.3333 39.6668V36.1668H48.9999V39.6668C48.9999 42.1422 48.0166 44.5162 46.2663 46.2665C44.5159 48.0168 42.142 49.0002 39.6666 49.0002H36.1666V44.3335H39.6666C40.9043 44.3335 42.0913 43.8418 42.9664 42.9667C43.8416 42.0915 44.3333 40.9045 44.3333 39.6668Z" fill="#603309"/>
</svg>
