<svg width="56" height="57" viewBox="0 0 56 57" fill="none" xmlns="http://www.w3.org/2000/svg">
<g clip-path="url(#clip0_2468_5999)">
<path d="M17.5567 6.2901C16.8674 6.18183 16.838 6.17063 17.1644 6.1221C17.7877 6.02503 19.2544 6.1557 20.2664 6.39836C22.6277 6.96583 24.7764 8.42183 27.0717 11.009L27.6804 11.696L28.553 11.5541C32.227 10.9568 35.9597 11.4309 39.0874 12.8906C39.949 13.2938 41.3057 14.0928 41.4707 14.2981C41.5294 14.3653 41.6284 14.7834 41.6907 15.2352C41.9254 16.7957 41.8117 17.9866 41.3387 18.8789C41.082 19.3642 41.0674 19.5173 41.2397 19.9354C41.3221 20.1076 41.4503 20.2528 41.6098 20.3545C41.7693 20.4561 41.9536 20.5101 42.1417 20.5104C42.919 20.5104 43.755 19.241 44.14 17.4714L44.294 16.7658L44.5984 17.1168C46.274 19.0357 47.5867 21.649 47.8104 23.5082L47.869 23.9936L47.5904 23.553C47.1853 22.8783 46.6411 22.3013 45.9954 21.8618C44.8734 21.1114 43.6854 20.8538 40.5467 20.6858C37.7087 20.5365 36.1027 20.2901 34.5114 19.7637C31.8017 18.8677 30.4377 17.6805 27.2184 13.4096C25.7884 11.5093 24.9084 10.4602 24.0284 9.6165C22.03 7.69383 20.0684 6.68583 17.5567 6.29383V6.2901Z" fill="#603309"/>
<path d="M42.1164 10.5278C42.1861 9.25845 42.3547 8.41845 42.6994 7.65312C42.7749 7.4597 42.8695 7.27458 42.9817 7.10059C43.0001 7.10059 42.9414 7.32459 42.8497 7.59712C42.6004 8.34379 42.5564 9.35925 42.7324 10.5427C42.9524 12.0435 43.0734 12.2601 44.6391 13.8803C45.3761 14.6419 46.2304 15.5977 46.5421 16.0121L47.1067 16.7587L46.5421 16.2249C45.8527 15.5715 44.2687 14.2947 43.9167 14.1118C43.6821 13.9923 43.6454 13.9923 43.5024 14.1379C43.3667 14.2723 43.3411 14.4739 43.3191 15.4297C43.2934 16.9193 43.0917 17.875 42.6077 18.827C42.3474 19.3497 42.3071 19.2377 42.5417 18.6515C42.7177 18.2185 42.7361 18.0243 42.7361 16.5833C42.7361 13.6899 42.3914 12.9918 40.4004 11.8046C39.7999 11.4514 39.1832 11.1275 38.5524 10.8339C38.2416 10.7067 37.9402 10.557 37.6504 10.3859C37.7054 10.3299 39.6487 10.9049 40.4297 11.2073C41.5957 11.6627 41.7864 11.7187 41.9294 11.6665C42.0211 11.6291 42.0687 11.3491 42.1127 10.5278H42.1164ZM18.8954 15.4819C17.4984 13.5331 16.6294 10.5427 16.8201 8.30645L16.8751 7.61579L17.1941 7.67179C17.7954 7.78379 18.8257 8.17205 19.3097 8.47072C20.6334 9.28459 21.2091 10.3561 21.7921 13.1113C21.9644 13.9177 22.1881 14.8286 22.2907 15.1422C22.4557 15.6387 23.0864 16.7998 23.5961 17.5539C23.9627 18.099 23.7207 18.3566 22.9067 18.2819C21.6637 18.1699 19.9807 16.9939 18.8954 15.4819ZM40.4151 29.9934C33.8737 27.3315 31.5711 25.0169 31.5711 21.1155C31.5711 20.5406 31.5894 20.0702 31.6151 20.0702C31.6371 20.0702 31.8901 20.2569 32.1761 20.4921C33.5034 21.5673 34.9884 22.0265 39.1024 22.635C41.5224 22.9934 42.8791 23.2809 44.1367 23.7027C48.1334 25.043 50.6011 27.7609 51.1914 31.4681C51.3601 32.5433 51.2647 34.5593 50.9824 35.6233C50.7624 36.4633 50.0951 37.9753 49.9191 38.035C49.8677 38.0537 49.8201 37.8633 49.8091 37.6019C49.7431 36.2131 49.0464 34.8579 47.8804 33.8425C46.5531 32.6889 44.7711 31.7667 40.4151 29.9934ZM35.8244 31.1022C35.7476 30.6294 35.6423 30.1618 35.5091 29.7022L35.3404 29.1982L35.6521 29.5529C36.0811 30.0382 36.4221 30.6617 36.7081 31.4942C36.9281 32.1289 36.9501 32.3155 36.9501 33.3459C36.9501 34.3577 36.9207 34.5705 36.7154 35.1379C36.4336 35.9795 35.9614 36.7417 35.3367 37.363C34.1414 38.595 32.6051 39.2745 30.3867 39.5582C30.0017 39.6067 28.8797 39.6889 27.8934 39.7411C25.4037 39.8718 23.7647 40.1443 22.2944 40.667C22.1611 40.7266 22.0182 40.7608 21.8727 40.7678C21.8141 40.7081 22.8187 40.1033 23.6437 39.7001C24.8097 39.1289 25.9721 38.819 28.5754 38.3822C29.8587 38.1657 31.1897 37.9006 31.5271 37.7961C34.7097 36.8105 36.3487 34.2606 35.8244 31.1022Z" fill="#603309"/>
<path d="M38.8237 36.493C37.9547 34.6039 37.753 32.7783 38.2297 31.0759C38.281 30.8893 38.3617 30.7437 38.413 30.7437C38.4607 30.7437 38.6697 30.8557 38.8677 30.9938C39.271 31.2663 40.0703 31.7255 42.2117 32.9053C44.881 34.3799 46.4063 35.5186 47.4403 36.8253C48.346 37.9639 48.907 39.2669 49.1783 40.8498C49.3323 41.7458 49.2407 43.9111 49.0133 44.8146C48.2947 47.6669 46.63 49.9069 44.2467 51.2135C43.8983 51.4039 43.5867 51.5607 43.55 51.5607C43.517 51.5607 43.6453 51.2359 43.8323 50.8365C44.6353 49.1415 44.727 47.4951 44.122 45.6621C43.748 44.5383 42.9927 43.1682 41.4673 40.8498C39.6927 38.1618 39.26 37.4413 38.8237 36.493ZM14.2497 46.6962C16.6807 44.6205 19.6983 43.1495 22.452 42.6941C23.8703 42.5089 25.309 42.5657 26.709 42.8621C28.469 43.3175 30.0457 44.3405 30.8633 45.5538C31.6627 46.7447 32.0073 47.7789 32.3667 50.0861C32.506 50.9933 32.66 51.9079 32.704 52.1133C32.9717 53.3079 33.496 54.2637 34.1413 54.7415C35.168 55.5031 36.9427 55.5517 38.6843 54.8647C38.8652 54.7798 39.0563 54.7196 39.2527 54.6855C39.315 54.749 38.4387 55.3426 37.8227 55.6562C37.0918 56.0519 36.2743 56.2523 35.4467 56.2386C33.8517 56.2386 32.528 55.4173 31.4207 53.7447C31.0146 53.0366 30.6521 52.3034 30.3353 51.5495C29.1693 48.8578 28.5937 48.0402 27.2407 47.1405C26.06 46.3565 24.5383 46.2183 23.3943 46.7858C21.891 47.5325 21.473 49.4738 22.551 50.7058C23.0546 51.2352 23.7134 51.5837 24.4283 51.6989C24.7123 51.7385 25.0013 51.7155 25.2757 51.6314C25.5502 51.5472 25.8036 51.404 26.0189 51.2114C26.2342 51.0187 26.4062 50.7812 26.5234 50.5149C26.6406 50.2486 26.7001 49.9597 26.698 49.6679C26.698 48.8578 26.39 48.3986 25.6163 48.0402C24.5567 47.5586 23.4237 48.1223 23.4273 49.1266C23.4273 49.5559 23.6143 49.8247 24.0397 50.0226C24.311 50.1458 24.3183 50.1533 24.0947 50.1085C23.1267 49.9031 22.8993 48.7197 23.6767 47.9357C24.6153 46.9949 26.5513 47.4093 27.215 48.6973C27.4937 49.2386 27.5267 50.3138 27.2847 50.9634C26.7347 52.4194 25.1507 53.1847 23.5373 52.7666C22.4373 52.4829 21.9937 52.1767 20.67 50.7991C18.371 48.4023 17.48 47.9357 14.1653 47.413L13.5273 47.3122L14.2497 46.6962Z" fill="#603309"/>
<path fill-rule="evenodd" clip-rule="evenodd" d="M3.46282 3.8003C11.1408 13.2307 16.4318 17.1208 17.0185 17.9422C17.5025 18.6216 17.3192 19.2339 16.4905 19.7118C15.9012 20.0132 15.2597 20.1946 14.6022 20.2456C14.0632 20.2456 13.8762 20.0366 13.8762 20.0366C13.5645 19.7379 13.3885 19.7902 11.7862 16.9118C10.4239 14.753 9.04516 12.605 7.65016 10.468C7.53282 10.356 7.53649 10.356 11.5625 17.6472C12.2115 19.1667 11.6908 19.723 11.6908 19.9395C11.6908 20.38 11.5698 20.6115 11.0345 21.22C10.1398 22.228 9.74016 23.363 9.45049 25.7112C9.12782 28.3432 8.21849 30.2024 5.69582 33.387C4.22182 35.2499 3.97982 35.5896 3.60582 36.3438C3.13649 37.2883 3.00816 37.8184 2.95682 39.0094C2.90182 40.275 3.00816 41.0888 3.38949 42.2947C3.71949 43.355 4.07149 44.0494 4.96249 45.4456C5.73249 46.6515 6.17249 47.5475 6.17249 47.8984C6.17249 48.1747 6.22382 48.1747 7.41916 47.9022C10.2645 47.2526 12.5782 46.1102 13.8798 44.7027C14.6865 43.8328 14.8735 43.355 14.8808 42.164C14.8845 41.3875 14.8588 41.2232 14.6498 40.7752C14.3125 40.0472 13.6965 39.4387 12.3398 38.4979C10.5578 37.2659 9.79516 36.2766 9.58982 34.9139C9.41382 33.7939 9.61549 33.0062 10.5982 30.9192C11.6175 28.7539 11.8705 27.8318 12.0428 25.6552C12.1528 24.2478 12.3032 23.6915 12.7028 23.2435C13.1208 22.7806 13.4948 22.6238 14.5288 22.4819C16.2118 22.2467 17.2788 21.8099 18.1588 20.9886C18.5116 20.6921 18.7962 20.3205 18.9925 19.9C19.1889 19.4794 19.2923 19.0201 19.2955 18.5544L19.3322 17.7704L18.9032 17.2702C17.3595 15.4483 2.42882 2.3667 2.33349 2.3667C2.31516 2.3667 2.82116 3.01257 3.46282 3.8003ZM7.04149 40.443C7.20971 40.1405 7.25973 39.7845 7.18157 39.4461C7.10341 39.1078 6.90282 38.8118 6.61982 38.6174C6.06982 38.244 5.20816 38.4232 5.20816 38.9048C5.20816 39.0542 5.28882 39.1624 5.47216 39.2558C5.78016 39.4163 5.80216 39.5955 5.56016 39.9651C5.31449 40.3347 5.33649 40.6595 5.61516 40.8835C6.06616 41.2382 6.70416 41.044 7.04149 40.443ZM20.3918 22.8963C19.6035 23.139 18.8372 23.9864 18.5952 24.875C18.4522 25.4163 18.5365 26.3683 18.7528 26.6595C19.1048 27.1336 19.4422 27.2568 20.3625 27.2531C22.1592 27.2419 23.7212 26.4616 23.9045 25.4835C24.0512 24.6846 23.3655 23.5795 22.4195 23.0904C21.7769 22.8248 21.0718 22.7573 20.3918 22.8963ZM22.4965 24.5576C22.7715 24.1582 22.6505 23.7288 22.1775 23.4376C21.2828 22.8814 19.9225 23.3406 19.9225 24.1992C19.9225 24.6286 20.6302 25.0952 21.2792 25.0952C21.7118 25.0952 22.3058 24.8339 22.4965 24.5576Z" fill="#603309"/>
</g>
<defs>
<clipPath id="clip0_2468_5999">
<rect width="56" height="56" fill="white" transform="translate(0 0.5)"/>
</clipPath>
</defs>
</svg>
