<svg width="56" height="57" viewBox="0 0 56 57" fill="none" xmlns="http://www.w3.org/2000/svg">
<path d="M28.9713 51.2936C28.3672 51.6291 27.6328 51.6291 27.0287 51.2936L8.02872 40.738C7.39378 40.3853 7 39.716 7 38.9897V18.01C7 17.2836 7.39378 16.6144 8.02871 16.2617L27.0287 5.70611C27.6328 5.37053 28.3672 5.37053 28.9713 5.70611L47.9713 16.2617C48.6062 16.6144 49 17.2836 49 18.01V38.9897C49 39.716 48.6062 40.3853 47.9713 40.738L28.9713 51.2936ZM19.8838 21.3297C20.6786 21.7735 21.6598 21.6048 22.3857 21.0555C22.9838 20.6028 23.6303 20.2259 24.325 19.9248C25.4917 19.4193 26.7167 19.1665 28 19.1665C29.2833 19.1665 30.5083 19.4193 31.675 19.9248C32.3697 20.2259 33.0162 20.6028 33.6143 21.0555C34.3402 21.6048 35.3214 21.7735 36.1162 21.3297L38.6299 19.9262C39.9985 19.162 39.9961 17.192 38.6256 16.4313L28.9707 11.072C28.3669 10.7369 27.6331 10.7369 27.0293 11.072L17.3744 16.4313C16.0039 17.192 16.0015 19.162 17.3701 19.9262L19.8838 21.3297ZM22.6972 43.5376C24.0303 44.2763 25.6667 43.3123 25.6667 41.7883V39.0891C25.6667 38.1778 25.04 37.4033 24.2032 37.0426C22.7659 36.423 21.562 35.4809 20.5917 34.2165C19.3083 32.5443 18.6667 30.6387 18.6667 28.4998C18.6667 28.0721 18.6861 27.6731 18.725 27.3028C18.7959 26.6279 18.5369 25.9305 17.9447 25.5989L14.6439 23.7504C13.3107 23.0038 11.6667 23.9674 11.6667 25.4954V36.2466C11.6667 36.9737 12.0613 37.6435 12.6972 37.9959L22.6972 43.5376ZM28 33.1665C29.2833 33.1665 30.3823 32.7092 31.297 31.7945C32.2117 30.8798 32.6682 29.7816 32.6667 28.4998C32.6667 27.2165 32.2101 26.1183 31.297 25.2052C30.3839 24.2921 29.2849 23.8347 28 23.8332C26.7167 23.8332 25.6184 24.2905 24.7053 25.2052C23.7922 26.1198 23.3349 27.2181 23.3333 28.4998C23.3333 29.7832 23.7907 30.8822 24.7053 31.7968C25.62 32.7115 26.7182 33.1681 28 33.1665ZM30.3333 41.7883C30.3333 43.3123 31.9697 44.2763 33.3028 43.5376L43.3028 37.9959C43.9387 37.6435 44.3333 36.9737 44.3333 36.2466V25.4954C44.3333 23.9674 42.6893 23.0038 41.3561 23.7504L38.0573 25.5978C37.4638 25.9301 37.2039 26.6287 37.275 27.3052C37.3139 27.6754 37.3333 28.0736 37.3333 28.4998C37.3333 30.6387 36.6917 32.5443 35.4083 34.2165C34.438 35.4809 33.2341 36.423 31.7968 37.0426C30.96 37.4033 30.3333 38.1778 30.3333 39.0891V41.7883Z" fill="#603309"/>
</svg>
