<svg width="24" height="24" viewBox="0 0 24 24" fill="none" xmlns="http://www.w3.org/2000/svg">
<g id="icon/telegram">
<path id="Vector" d="M16.7001 20C16.3282 20 15.967 19.8758 15.6737 19.6472L12.3432 17.0671L10.1102 19.5323C10.0119 19.6406 9.88665 19.7209 9.74717 19.765C9.60768 19.8091 9.459 19.8154 9.3163 19.7832C9.1736 19.751 9.042 19.6815 8.93495 19.5818C8.82789 19.4821 8.74922 19.3558 8.70696 19.2158L7.03758 13.6936L4.04097 12.6523C3.71741 12.5397 3.43579 12.3312 3.23355 12.0547C3.03132 11.7781 2.91806 11.4466 2.90882 11.1041C2.89958 10.7616 2.9948 10.4244 3.18183 10.1373C3.36886 9.85029 3.63883 9.62696 3.95585 9.49705L18.7653 3.51788C19.0479 3.40297 19.3563 3.36679 19.6578 3.4132C19.9593 3.45961 20.2426 3.58686 20.4775 3.78143C20.7124 3.976 20.8902 4.23061 20.992 4.51817C21.0937 4.80573 21.1156 5.1155 21.0554 5.41452L18.3587 18.6497C18.2789 19.0308 18.0705 19.373 17.7683 19.6187C17.4662 19.8644 17.0887 19.9988 16.6993 19.9992L16.7001 20Z" fill="#FFC70F" stroke="black" stroke-width="0.87"/>
<path id="Vector_2" d="M9.49892 19.8031C9.32158 19.8031 9.14895 19.7461 9.00654 19.6404C8.86412 19.5348 8.75946 19.3861 8.70803 19.2164L6.91635 13.2992C6.8605 13.1149 6.87082 12.9169 6.94552 12.7394C7.02022 12.562 7.15461 12.4162 7.32543 12.3273L16.0582 7.78034C16.2333 7.68864 16.4355 7.66275 16.6281 7.70735C16.8207 7.75195 16.9909 7.8641 17.1078 8.02345C17.2248 8.1828 17.2808 8.3788 17.2656 8.57588C17.2504 8.77297 17.1651 8.95809 17.0251 9.09766L11.1708 14.9512L10.308 19.1428C10.2711 19.3228 10.1752 19.4854 10.0356 19.6048C9.89594 19.7243 9.72048 19.7937 9.53694 19.8023L9.49892 19.8031Z" fill="#F59F00" stroke="black" stroke-width="0.87"/>
</g>
</svg>
