<svg width="175" height="42" viewBox="0 0 175 42" fill="none" xmlns="http://www.w3.org/2000/svg">
<path d="M174.296 21.8423C174.296 25.7791 173.244 28.7897 171.139 30.8739C169.054 32.9581 166.075 34.0002 162.202 34.0002C160.583 34.0002 159.04 33.9187 157.573 33.7556C156.598 33.6471 155.886 32.8049 155.886 31.8232V12.4929C155.886 11.5112 156.598 10.669 157.573 10.5605C159.04 10.3975 160.583 10.3159 162.202 10.3159C166.054 10.3159 169.033 11.3264 171.139 13.3475C173.244 15.3475 174.296 18.1791 174.296 21.8423ZM170.096 21.8423C170.096 16.5159 167.539 13.8528 162.423 13.8528C162.239 13.8528 162.059 13.8561 161.882 13.8628C160.925 13.8991 160.244 14.7342 160.244 15.6923V28.6239C160.244 29.5819 160.925 30.417 161.882 30.4533C162.059 30.46 162.239 30.4633 162.423 30.4633C164.991 30.4633 166.907 29.7581 168.17 28.3476C169.454 26.937 170.096 24.7686 170.096 21.8423Z" fill="#C4F360"/>
<path d="M147.446 33.6841C146.342 33.6841 145.446 32.7886 145.446 31.6841V12.6313C145.446 11.5268 146.342 10.6313 147.446 10.6313H148.278C149.382 10.6313 150.278 11.5268 150.278 12.6313V31.6841C150.278 32.7886 149.382 33.6841 148.278 33.6841H147.446Z" fill="#C4F360"/>
<path d="M115.973 19.2158C115.973 18.1373 116.847 17.2631 117.926 17.2631H118.672C119.314 17.2631 119.84 17.7741 119.857 18.4157L119.888 19.5264C119.888 19.5497 119.907 19.5683 119.931 19.5683C119.944 19.5683 119.957 19.5621 119.965 19.5515C120.594 18.7385 121.369 18.102 122.289 17.642C123.236 17.1788 124.205 16.9473 125.194 16.9473C127.089 16.9473 128.478 17.5367 129.362 18.7157C130.268 19.8736 130.72 21.7789 130.72 24.4315V31.6842C130.72 32.7887 129.825 33.6842 128.72 33.6842H128.678C127.574 33.6842 126.678 32.7887 126.678 31.6842V24.842C126.678 23.0315 126.468 21.8104 126.047 21.1789C125.626 20.5262 124.868 20.1999 123.773 20.1999C122.847 20.1999 121.994 20.6736 121.215 21.621C120.457 22.5683 120.078 23.6736 120.078 24.9368V31.6842C120.078 32.7887 119.183 33.6842 118.078 33.6842H117.973C116.868 33.6842 115.973 32.7887 115.973 31.6842V19.2158Z" fill="#C4F360"/>
<path d="M101.384 22.1048C100.94 23.1564 101.918 24.1473 103.059 24.1473H106.637C107.754 24.1473 108.728 23.1977 108.326 22.1558C108.156 21.7143 107.923 21.336 107.626 21.021C106.974 20.2841 106.047 19.9157 104.847 19.9157C103.69 19.9157 102.763 20.2841 102.068 21.021C101.787 21.3289 101.559 21.6902 101.384 22.1048ZM103.14 26.9578C101.969 26.9578 100.99 28.0206 101.608 29.0156C101.817 29.353 102.076 29.6566 102.384 29.9263C103.247 30.642 104.332 30.9999 105.637 30.9999C106.659 30.9999 107.677 30.8322 108.691 30.4967C109.551 30.212 110.533 30.609 110.813 31.4703C111.048 32.1899 110.703 32.9787 109.986 33.2226C108.465 33.7409 106.878 34 105.226 34C102.742 34 100.721 33.2315 99.1632 31.6947C97.6263 30.1578 96.8579 28.0841 96.8579 25.4736C96.8579 22.821 97.5737 20.7368 99.0053 19.221C100.437 17.7052 102.374 16.9473 104.816 16.9473C107.258 16.9473 109.153 17.6736 110.5 19.1262C111.868 20.5789 112.553 22.6631 112.553 25.3789C112.553 26.2819 111.778 26.9578 110.875 26.9578H103.14Z" fill="#C4F360"/>
<path d="M84.5392 26.4358C84.531 26.4265 84.5191 26.4211 84.5066 26.4211C84.4826 26.4211 84.4631 26.4406 84.4631 26.4646V31.6843C84.4631 32.7889 83.5676 33.6843 82.4631 33.6843H82.3578C81.2532 33.6843 80.3578 32.7889 80.3578 31.6843V12C80.3578 10.8954 81.2532 10 82.3578 10H82.4631C83.5676 10 84.4631 10.8954 84.4631 12V23.6293C84.4631 23.6538 84.483 23.6737 84.5075 23.6737C84.5195 23.6737 84.5309 23.6689 84.5393 23.6603L90.2708 17.7841C90.5957 17.451 91.0412 17.2632 91.5065 17.2632C93.0443 17.2632 93.8144 19.1224 92.727 20.2098L89.2324 23.7044C88.4733 24.4635 88.4489 25.6864 89.177 26.4752L93.0592 30.6809C94.1173 31.8272 93.3042 33.6843 91.7442 33.6843C91.2308 33.6843 90.7422 33.4638 90.4025 33.0789L84.5392 26.4358Z" fill="#C4F360"/>
<path d="M62.8008 19.2525C64.2745 17.7157 66.2639 16.9473 68.7692 16.9473C71.2745 16.9473 73.264 17.7157 74.7377 19.2525C76.2113 20.7894 76.9482 22.8631 76.9482 25.4736C76.9482 28.0841 76.2113 30.1578 74.7377 31.6947C73.264 33.2315 71.2745 34 68.7692 34C66.2639 34 64.2745 33.2315 62.8008 31.6947C61.3481 30.1578 60.6218 28.0841 60.6218 25.4736C60.6218 22.8631 61.3481 20.7894 62.8008 19.2525ZM68.7692 30.8736C70.0534 30.8736 71.0534 30.421 71.7692 29.5157C72.485 28.5894 72.8429 27.242 72.8429 25.4736C72.8429 23.7052 72.485 22.3683 71.7692 21.4631C71.0534 20.5368 70.0534 20.0736 68.7692 20.0736C67.5061 20.0736 66.5166 20.5368 65.8008 21.4631C65.085 22.3683 64.7271 23.7052 64.7271 25.4736C64.7271 27.242 65.085 28.5894 65.8008 29.5157C66.5166 30.421 67.5061 30.8736 68.7692 30.8736Z" fill="#C4F360"/>
<path d="M58.8499 10.6313C59.8614 10.6313 60.6815 11.4514 60.6815 12.4629C60.6815 13.4745 59.8614 14.2945 58.8499 14.2945H56.0814C54.9769 14.2945 54.0814 15.1899 54.0814 16.2945V31.6841C54.0814 32.7886 53.186 33.6841 52.0814 33.6841H51.5972C50.4926 33.6841 49.5972 32.7886 49.5972 31.6841V16.2945C49.5972 15.1899 48.7018 14.2945 47.5972 14.2945H44.8288C43.8172 14.2945 42.9972 13.4745 42.9972 12.4629C42.9972 11.4514 43.8172 10.6313 44.8288 10.6313H58.8499Z" fill="#C4F360"/>
<path fill-rule="evenodd" clip-rule="evenodd" d="M32.0346 34.0726V16.6525C32.0346 7.80641 24.8634 0.635254 16.0173 0.635254C7.17127 0.635254 0.00012207 7.80642 0.00012207 16.6525V34.0726C0.00012207 37.9708 3.16024 41.1309 7.05843 41.1309H24.9763C28.8745 41.1309 32.0346 37.9708 32.0346 34.0726ZM3.00012 16.6525C3.00012 9.46327 8.82813 3.63525 16.0173 3.63525C23.2066 3.63525 29.0346 9.46326 29.0346 16.6525V34.0726C29.0346 36.3139 27.2176 38.1309 24.9763 38.1309H7.05843C4.81709 38.1309 3.00012 36.3139 3.00012 34.0726V16.6525ZM14.7081 10.1741C14.7081 9.34364 15.3814 8.67038 16.2119 8.67038C17.0424 8.67038 17.7157 9.34364 17.7157 10.1741C17.7157 11.0047 17.0424 11.6779 16.2119 11.6779C15.3814 11.6779 14.7081 11.0047 14.7081 10.1741ZM16.2119 14.6704C18.6951 14.6704 20.7081 12.6574 20.7081 10.1741C20.7081 7.69095 18.6951 5.67792 16.2119 5.67792C13.7287 5.67792 11.7157 7.69095 11.7157 10.1741C11.7157 12.6574 13.7287 14.6704 16.2119 14.6704ZM18.4862 17.6511C22.8266 17.6511 26.3452 21.1697 26.3452 25.5101C26.3452 29.8505 22.8266 33.3691 18.4862 33.3691H8.53626C7.70783 33.3691 7.03626 32.6975 7.03626 31.8691C7.03626 31.0407 7.70783 30.3691 8.53626 30.3691H11.8991V20.6511H8.53626C7.70783 20.6511 7.03626 19.9796 7.03626 19.1511C7.03626 18.3227 7.70783 17.6511 8.53626 17.6511H18.4862ZM14.8991 20.6511H18.4862C21.1697 20.6511 23.3452 22.8266 23.3452 25.5101C23.3452 28.1937 21.1697 30.3691 18.4862 30.3691H14.8991V20.6511Z" fill="url(#paint0_linear_99_37)"/>
<defs>
<linearGradient id="paint0_linear_99_37" x1="0.00012207" y1="1" x2="32.0001" y2="0.999999" gradientUnits="userSpaceOnUse">
<stop stop-color="#C4F361"/>
<stop offset="1" stop-color="#79F3B5"/>
</linearGradient>
</defs>
</svg>
