<svg width="24" height="24" viewBox="0 0 24 24" fill="none" xmlns="http://www.w3.org/2000/svg">
<g id="Uniswap_icon_pink 2" clip-path="url(#clip0_2353_4744)">
<path id="Vector" d="M18.8804 3.63704C18.9126 3.07144 18.9896 2.69838 19.1444 2.35768C19.2056 2.22283 19.263 2.11246 19.2719 2.11246C19.2807 2.11246 19.2541 2.212 19.2127 2.33363C19.1001 2.66428 19.0817 3.11653 19.1592 3.64269C19.2576 4.3103 19.3135 4.40663 20.0217 5.1278C20.3538 5.46606 20.7402 5.89266 20.8802 6.07581L21.1348 6.40888L20.8802 6.17087C20.5688 5.87983 19.8526 5.31217 19.6943 5.23103C19.5883 5.17661 19.5725 5.17755 19.5071 5.24245C19.4468 5.30225 19.4341 5.3921 19.4257 5.8169C19.4127 6.47889 19.3221 6.90387 19.1036 7.32874C18.9853 7.55856 18.9667 7.50951 19.0737 7.2501C19.1536 7.05644 19.1617 6.97128 19.1611 6.33041C19.1599 5.0427 19.0065 4.73312 18.1067 4.20279C17.8788 4.06845 17.5032 3.87469 17.2722 3.77221C17.0411 3.66972 16.8575 3.58046 16.8642 3.57379C16.8897 3.54852 17.7672 3.80372 18.1203 3.93908C18.6456 4.14045 18.7324 4.16654 18.7962 4.14225C18.8389 4.12597 18.8596 4.00186 18.8804 3.63704Z" fill="#F50DB4"/>
<path id="Vector_2" d="M7.78106 1.76366C7.4694 1.71558 7.45623 1.70994 7.60289 1.68752C7.88398 1.64454 8.54757 1.70312 9.0049 1.81127C10.0725 2.06367 11.0439 2.71024 12.0809 3.85854L12.3564 4.1636L12.7505 4.10058C14.4108 3.83522 16.0998 4.04612 17.5125 4.69519C17.9011 4.87376 18.5139 5.22921 18.5904 5.32056C18.6148 5.34967 18.6596 5.53708 18.6899 5.73704C18.7949 6.42884 18.7423 6.95905 18.5296 7.3551C18.4138 7.57066 18.4074 7.63896 18.4852 7.82338C18.5473 7.97059 18.7205 8.07953 18.8921 8.07925C19.2431 8.07881 19.621 7.51437 19.796 6.729L19.8656 6.41706L20.0034 6.57228C20.7591 7.42384 21.3526 8.58513 21.4546 9.41175L21.4811 9.62725L21.3541 9.43133C21.1355 9.09422 20.9159 8.86467 20.6346 8.67958C20.1276 8.34591 19.5914 8.23232 18.1716 8.15794C16.8893 8.0907 16.1636 7.98176 15.444 7.74839C14.2196 7.35134 13.6023 6.82257 12.148 4.92474C11.5019 4.08178 11.1027 3.61538 10.7055 3.23979C9.80298 2.38636 8.9162 1.93879 7.78106 1.76366Z" fill="#F50DB4"/>
<path id="Vector_3" d="M8.38637 5.84588C7.75374 4.97958 7.36228 3.65137 7.44705 2.65848L7.47321 2.35123L7.61726 2.37736C7.88768 2.42642 8.35396 2.59903 8.57229 2.73094C9.17146 3.09285 9.43087 3.56935 9.69476 4.79293C9.77207 5.15132 9.87349 5.55689 9.92016 5.69419C9.99531 5.91523 10.2792 6.43145 10.51 6.76673C10.6762 7.00817 10.5658 7.12258 10.1983 7.08962C9.63708 7.03925 8.87682 6.51738 8.38637 5.84588Z" fill="#F50DB4"/>
<path id="Vector_4" d="M18.1123 12.2932C15.1557 11.1092 14.1143 10.0815 14.1143 8.34748C14.1143 8.09233 14.1232 7.88351 14.134 7.88351C14.1447 7.88351 14.2591 7.96774 14.3881 8.0707C14.9877 8.54893 15.659 8.75321 17.5176 9.02291C18.6114 9.18162 19.2268 9.3098 19.7946 9.49704C21.5991 10.0923 22.7156 11.3002 22.9819 12.9455C23.0592 13.4236 23.0139 14.3201 22.8884 14.7926C22.7894 15.1658 22.4872 15.8385 22.4071 15.8643C22.3848 15.8715 22.3631 15.7868 22.3574 15.6715C22.3269 15.0537 22.0131 14.4523 21.4859 14.0017C20.8865 13.4895 20.0812 13.0816 18.1123 12.2932Z" fill="#F50DB4"/>
<path id="Vector_5" d="M16.0366 12.785C15.9996 12.5658 15.9354 12.2858 15.8939 12.1628L15.8184 11.9392L15.9585 12.0957C16.1525 12.3122 16.3057 12.5892 16.4356 12.9581C16.5347 13.2397 16.5458 13.3234 16.5451 13.781C16.5443 14.2302 16.5319 14.3244 16.4404 14.5779C16.2961 14.9775 16.117 15.2609 15.8164 15.5651C15.2764 16.1118 14.582 16.4145 13.58 16.54C13.4058 16.5618 12.8982 16.5986 12.4519 16.6216C11.3272 16.6798 10.5869 16.8 9.92177 17.0323C9.8261 17.0657 9.74072 17.086 9.73204 17.0774C9.70516 17.0507 10.158 16.7823 10.5321 16.603C11.0595 16.3503 11.5846 16.2125 12.761 16.0176C13.342 15.9213 13.9422 15.8046 14.0946 15.7581C15.5337 15.3193 16.2734 14.1868 16.0366 12.785Z" fill="#F50DB4"/>
<path id="Vector_6" d="M17.392 15.179C16.9992 14.3391 16.9089 13.5282 17.1241 12.7719C17.1472 12.6911 17.1842 12.625 17.2065 12.625C17.2287 12.625 17.3215 12.6748 17.4124 12.7358C17.5935 12.8569 17.9565 13.0611 18.9238 13.5856C20.1307 14.24 20.8189 14.7468 21.2868 15.3258C21.6966 15.8329 21.9503 16.4104 22.0723 17.1147C22.1415 17.5136 22.101 18.4734 21.998 18.8751C21.6735 20.1417 20.9194 21.1366 19.8436 21.7171C19.686 21.8022 19.5445 21.872 19.5292 21.8723C19.5139 21.8726 19.5713 21.7274 19.6568 21.5496C20.0187 20.7972 20.0599 20.0654 19.7863 19.2508C19.6188 18.752 19.2772 18.1435 18.5876 17.1148C17.7858 15.919 17.5892 15.6007 17.392 15.179Z" fill="#F50DB4"/>
<path id="Vector_7" d="M6.28673 19.7105C7.3839 18.7892 8.74903 18.1346 9.99255 17.9337C10.5285 17.8471 11.4212 17.8815 11.9175 18.0078C12.713 18.2102 13.4245 18.6638 13.7946 19.204C14.1563 19.7321 14.3114 20.1923 14.473 21.2162C14.5367 21.62 14.606 22.0256 14.627 22.1174C14.7483 22.648 14.9844 23.0722 15.277 23.2852C15.7417 23.6235 16.5418 23.6445 17.3289 23.3391C17.4625 23.2872 17.5784 23.2515 17.5866 23.2595C17.6151 23.2877 17.2188 23.5516 16.9392 23.6905C16.563 23.8774 16.2638 23.9497 15.8662 23.9497C15.1454 23.9497 14.5469 23.585 14.0474 22.8412C13.9492 22.6949 13.7283 22.2565 13.5565 21.867C13.0293 20.6709 12.7689 20.3065 12.1566 19.9077C11.6239 19.5607 10.9367 19.4986 10.4198 19.7507C9.74082 20.0818 9.55137 20.9448 10.0377 21.4917C10.2309 21.7091 10.5914 21.8966 10.8861 21.9331C11.4375 22.0012 11.9114 21.5841 11.9114 21.0304C11.9114 20.6708 11.7725 20.4657 11.4227 20.3087C10.945 20.0943 10.4315 20.3449 10.434 20.7912C10.4351 20.9816 10.5184 21.1011 10.7102 21.1874C10.8333 21.2428 10.8361 21.2472 10.7358 21.2264C10.2975 21.136 10.1948 20.6105 10.5472 20.2616C10.9703 19.8428 11.8452 20.0276 12.1456 20.5993C12.2719 20.8395 12.2865 21.3177 12.1765 21.6065C11.9302 22.2528 11.2121 22.5927 10.4836 22.4078C9.98763 22.2818 9.78567 22.1455 9.18766 21.5329C8.14858 20.4683 7.74517 20.262 6.24714 20.0294L5.96008 19.9849L6.28673 19.7105Z" fill="#F50DB4"/>
<path id="Vector_8" fill-rule="evenodd" clip-rule="evenodd" d="M1.41114 0.65685C4.88125 4.84574 7.27131 6.574 7.53691 6.93914C7.75618 7.24064 7.67367 7.51166 7.29797 7.72412C7.08904 7.84218 6.65953 7.96185 6.44447 7.96185C6.20123 7.96185 6.11772 7.86856 6.11772 7.86856C5.97668 7.73551 5.89725 7.75879 5.173 6.48016C4.1675 4.9284 3.32604 3.64114 3.30308 3.61959C3.25 3.56975 3.25091 3.57143 5.07048 6.80947C5.36447 7.48434 5.12895 7.73208 5.12895 7.82819C5.12895 8.02373 5.07532 8.12654 4.83279 8.39557C4.42849 8.84421 4.24775 9.34821 4.11729 10.3914C3.97102 11.5608 3.55976 12.3868 2.41999 13.8005C1.75282 14.6282 1.64364 14.7798 1.4753 15.1134C1.26325 15.5334 1.20494 15.7687 1.18131 16.2991C1.15634 16.8599 1.20498 17.2221 1.37725 17.7583C1.52806 18.2278 1.68548 18.5377 2.08793 19.1577C2.43523 19.6927 2.63521 20.0903 2.63521 20.2458C2.63521 20.3695 2.65896 20.3697 3.19713 20.2488C4.48505 19.9596 5.53084 19.4508 6.11901 18.8274C6.48302 18.4414 6.56845 18.2284 6.57127 17.6995C6.5731 17.3536 6.56082 17.2813 6.46681 17.0822C6.3138 16.7584 6.03522 16.4891 5.4212 16.0716C4.61667 15.5246 4.27305 15.0843 4.17813 14.4786C4.10026 13.9817 4.19059 13.6311 4.63567 12.7033C5.09634 11.743 5.2105 11.3338 5.28772 10.3658C5.3376 9.74051 5.40667 9.49387 5.58733 9.2959C5.77575 9.08947 5.94536 9.01957 6.41165 8.95619C7.17183 8.85289 7.65592 8.65724 8.0538 8.2926C8.39898 7.97629 8.54342 7.67142 8.5656 7.21254L8.58241 6.86477L8.38952 6.64108C7.69098 5.83105 0.943339 0.0200806 0.900351 0.0200806C0.891168 0.0200806 1.12103 0.306647 1.41114 0.65685ZM3.02732 16.9337C3.18526 16.6554 3.10134 16.2978 2.83716 16.1231C2.58755 15.958 2.19979 16.0358 2.19979 16.2509C2.19979 16.3165 2.23629 16.3643 2.31854 16.4064C2.45704 16.4773 2.4671 16.557 2.35812 16.7199C2.24776 16.8849 2.25667 17.0299 2.38326 17.1285C2.58727 17.2874 2.87607 17.2 3.02732 16.9337Z" fill="#F50DB4"/>
<path id="Vector_9" fill-rule="evenodd" clip-rule="evenodd" d="M9.06213 9.13864C8.70528 9.24764 8.35833 9.62384 8.25094 10.0183C8.18547 10.2589 8.22263 10.6811 8.32073 10.8114C8.47927 11.022 8.63256 11.0774 9.0477 11.0745C9.86043 11.0689 10.5669 10.7222 10.6491 10.2888C10.7164 9.93357 10.4061 9.44124 9.97872 9.22508C9.75813 9.11359 9.28908 9.06935 9.06213 9.13864ZM10.0122 9.87755C10.1375 9.70043 10.0827 9.50898 9.86956 9.37953C9.46366 9.133 8.84978 9.337 8.84978 9.7184C8.84978 9.90825 9.16991 10.1154 9.46333 10.1154C9.65865 10.1154 9.92591 9.99955 10.0122 9.87755Z" fill="#F50DB4"/>
</g>
<defs>
<clipPath id="clip0_2353_4744">
<rect width="22.1198" height="24" fill="white" transform="translate(0.900085)"/>
</clipPath>
</defs>
</svg>
